<?xml version="1.0" encoding="utf-8" standalone="no"?>
<!DOCTYPE svg PUBLIC "-//W3C//DTD SVG 1.1//EN"
  "http://www.w3.org/Graphics/SVG/1.1/DTD/svg11.dtd">
<svg xmlns:xlink="http://www.w3.org/1999/xlink" width="783.773438pt" height="299.630437pt" viewBox="0 0 783.773438 299.630437" xmlns="http://www.w3.org/2000/svg" version="1.1">
 <metadata>
  <rdf:RDF xmlns:dc="http://purl.org/dc/elements/1.1/" xmlns:cc="http://creativecommons.org/ns#" xmlns:rdf="http://www.w3.org/1999/02/22-rdf-syntax-ns#">
   <cc:Work>
    <dc:type rdf:resource="http://purl.org/dc/dcmitype/StillImage"/>
    <dc:date>2026-07-19T20:54:22.929974</dc:date>
    <dc:format>image/svg+xml</dc:format>
    <dc:creator>
     <cc:Agent>
      <dc:title>Matplotlib v3.11.1, https://matplotlib.org/</dc:title>
     </cc:Agent>
    </dc:creator>
   </cc:Work>
  </rdf:RDF>
 </metadata>
 <defs>
  <style type="text/css">*{stroke-linejoin: round; stroke-linecap: butt}</style>
 </defs>
 <g id="figure_1">
  <g id="patch_1">
   <path d="M 0 299.630437 
L 783.773438 299.630437 
L 783.773438 0 
L 0 0 
z
" style="fill: #ffffff"/>
  </g>
  <g id="axes_1">
   <g id="patch_2">
    <path d="M 66.375781 261.429656 
L 389.213438 261.429656 
L 389.213438 38.638818 
L 66.375781 38.638818 
z
" style="fill: #ffffff"/>
   </g>
   <g id="matplotlib.axis_1">
    <g id="xtick_1">
     <g id="line2d_1">
      <path d="M 81.05022 261.429656 
L 81.05022 38.638818 
" clip-path="url(#p7f825450d4)" style="fill: none; stroke: #b0b0b0; stroke-opacity: 0.3; stroke-width: 0.8; stroke-linecap: square"/>
     </g>
     <g id="line2d_2">
      <defs>
       <path id="m0822cf7f4d" d="M 0 0 
L 0 3.5 
" style="stroke: #000000; stroke-width: 0.8"/>
      </defs>
      <g>
       <use xlink:href="#m0822cf7f4d" x="81.05022" y="261.429656" style="stroke: #000000; stroke-width: 0.8"/>
      </g>
     </g>
     <g id="text_1">
      <!-- 0.0 -->
      <g transform="translate(73.098658 276.027312) scale(0.1 -0.1)">
       <defs>
        <path id="DejaVuSans-13" d="M 2034 4250 
Q 1547 4250 1301 3770 
Q 1056 3291 1056 2328 
Q 1056 1369 1301 889 
Q 1547 409 2034 409 
Q 2525 409 2770 889 
Q 3016 1369 3016 2328 
Q 3016 3291 2770 3770 
Q 2525 4250 2034 4250 
z
M 2034 4750 
Q 2819 4750 3233 4129 
Q 3647 3509 3647 2328 
Q 3647 1150 3233 529 
Q 2819 -91 2034 -91 
Q 1250 -91 836 529 
Q 422 1150 422 2328 
Q 422 3509 836 4129 
Q 1250 4750 2034 4750 
z
" transform="scale(0.015625)"/>
        <path id="DejaVuSans-11" d="M 684 794 
L 1344 794 
L 1344 0 
L 684 0 
L 684 794 
z
" transform="scale(0.015625)"/>
       </defs>
       <use xlink:href="#DejaVuSans-13"/>
       <use xlink:href="#DejaVuSans-11" transform="translate(63.625 0)"/>
       <use xlink:href="#DejaVuSans-13" transform="translate(95.40625 0)"/>
      </g>
     </g>
    </g>
    <g id="xtick_2">
     <g id="line2d_3">
      <path d="M 139.747976 261.429656 
L 139.747976 38.638818 
" clip-path="url(#p7f825450d4)" style="fill: none; stroke: #b0b0b0; stroke-opacity: 0.3; stroke-width: 0.8; stroke-linecap: square"/>
     </g>
     <g id="line2d_4">
      <g>
       <use xlink:href="#m0822cf7f4d" x="139.747976" y="261.429656" style="stroke: #000000; stroke-width: 0.8"/>
      </g>
     </g>
     <g id="text_2">
      <!-- 0.1 -->
      <g transform="translate(131.796413 276.027312) scale(0.1 -0.1)">
       <defs>
        <path id="DejaVuSans-14" d="M 794 531 
L 1825 531 
L 1825 4091 
L 703 3866 
L 703 4441 
L 1819 4666 
L 2450 4666 
L 2450 531 
L 3481 531 
L 3481 0 
L 794 0 
L 794 531 
z
" transform="scale(0.015625)"/>
       </defs>
       <use xlink:href="#DejaVuSans-13"/>
       <use xlink:href="#DejaVuSans-11" transform="translate(63.625 0)"/>
       <use xlink:href="#DejaVuSans-14" transform="translate(95.40625 0)"/>
      </g>
     </g>
    </g>
    <g id="xtick_3">
     <g id="line2d_5">
      <path d="M 198.445732 261.429656 
L 198.445732 38.638818 
" clip-path="url(#p7f825450d4)" style="fill: none; stroke: #b0b0b0; stroke-opacity: 0.3; stroke-width: 0.8; stroke-linecap: square"/>
     </g>
     <g id="line2d_6">
      <g>
       <use xlink:href="#m0822cf7f4d" x="198.445732" y="261.429656" style="stroke: #000000; stroke-width: 0.8"/>
      </g>
     </g>
     <g id="text_3">
      <!-- 0.2 -->
      <g transform="translate(190.494169 276.027312) scale(0.1 -0.1)">
       <defs>
        <path id="DejaVuSans-15" d="M 1228 531 
L 3431 531 
L 3431 0 
L 469 0 
L 469 531 
Q 828 903 1448 1529 
Q 2069 2156 2228 2338 
Q 2531 2678 2651 2914 
Q 2772 3150 2772 3378 
Q 2772 3750 2511 3984 
Q 2250 4219 1831 4219 
Q 1534 4219 1204 4116 
Q 875 4013 500 3803 
L 500 4441 
Q 881 4594 1212 4672 
Q 1544 4750 1819 4750 
Q 2544 4750 2975 4387 
Q 3406 4025 3406 3419 
Q 3406 3131 3298 2873 
Q 3191 2616 2906 2266 
Q 2828 2175 2409 1742 
Q 1991 1309 1228 531 
z
" transform="scale(0.015625)"/>
       </defs>
       <use xlink:href="#DejaVuSans-13"/>
       <use xlink:href="#DejaVuSans-11" transform="translate(63.625 0)"/>
       <use xlink:href="#DejaVuSans-15" transform="translate(95.40625 0)"/>
      </g>
     </g>
    </g>
    <g id="xtick_4">
     <g id="line2d_7">
      <path d="M 257.143487 261.429656 
L 257.143487 38.638818 
" clip-path="url(#p7f825450d4)" style="fill: none; stroke: #b0b0b0; stroke-opacity: 0.3; stroke-width: 0.8; stroke-linecap: square"/>
     </g>
     <g id="line2d_8">
      <g>
       <use xlink:href="#m0822cf7f4d" x="257.143487" y="261.429656" style="stroke: #000000; stroke-width: 0.8"/>
      </g>
     </g>
     <g id="text_4">
      <!-- 0.3 -->
      <g transform="translate(249.191925 276.027312) scale(0.1 -0.1)">
       <defs>
        <path id="DejaVuSans-16" d="M 2597 2516 
Q 3050 2419 3304 2112 
Q 3559 1806 3559 1356 
Q 3559 666 3084 287 
Q 2609 -91 1734 -91 
Q 1441 -91 1130 -33 
Q 819 25 488 141 
L 488 750 
Q 750 597 1062 519 
Q 1375 441 1716 441 
Q 2309 441 2620 675 
Q 2931 909 2931 1356 
Q 2931 1769 2642 2001 
Q 2353 2234 1838 2234 
L 1294 2234 
L 1294 2753 
L 1863 2753 
Q 2328 2753 2575 2939 
Q 2822 3125 2822 3475 
Q 2822 3834 2567 4026 
Q 2313 4219 1838 4219 
Q 1578 4219 1281 4162 
Q 984 4106 628 3988 
L 628 4550 
Q 988 4650 1302 4700 
Q 1616 4750 1894 4750 
Q 2613 4750 3031 4423 
Q 3450 4097 3450 3541 
Q 3450 3153 3228 2886 
Q 3006 2619 2597 2516 
z
" transform="scale(0.015625)"/>
       </defs>
       <use xlink:href="#DejaVuSans-13"/>
       <use xlink:href="#DejaVuSans-11" transform="translate(63.625 0)"/>
       <use xlink:href="#DejaVuSans-16" transform="translate(95.40625 0)"/>
      </g>
     </g>
    </g>
    <g id="xtick_5">
     <g id="line2d_9">
      <path d="M 315.841243 261.429656 
L 315.841243 38.638818 
" clip-path="url(#p7f825450d4)" style="fill: none; stroke: #b0b0b0; stroke-opacity: 0.3; stroke-width: 0.8; stroke-linecap: square"/>
     </g>
     <g id="line2d_10">
      <g>
       <use xlink:href="#m0822cf7f4d" x="315.841243" y="261.429656" style="stroke: #000000; stroke-width: 0.8"/>
      </g>
     </g>
     <g id="text_5">
      <!-- 0.4 -->
      <g transform="translate(307.88968 276.027312) scale(0.1 -0.1)">
       <defs>
        <path id="DejaVuSans-17" d="M 2419 4116 
L 825 1625 
L 2419 1625 
L 2419 4116 
z
M 2253 4666 
L 3047 4666 
L 3047 1625 
L 3713 1625 
L 3713 1100 
L 3047 1100 
L 3047 0 
L 2419 0 
L 2419 1100 
L 313 1100 
L 313 1709 
L 2253 4666 
z
" transform="scale(0.015625)"/>
       </defs>
       <use xlink:href="#DejaVuSans-13"/>
       <use xlink:href="#DejaVuSans-11" transform="translate(63.625 0)"/>
       <use xlink:href="#DejaVuSans-17" transform="translate(95.40625 0)"/>
      </g>
     </g>
    </g>
    <g id="xtick_6">
     <g id="line2d_11">
      <path d="M 374.538999 261.429656 
L 374.538999 38.638818 
" clip-path="url(#p7f825450d4)" style="fill: none; stroke: #b0b0b0; stroke-opacity: 0.3; stroke-width: 0.8; stroke-linecap: square"/>
     </g>
     <g id="line2d_12">
      <g>
       <use xlink:href="#m0822cf7f4d" x="374.538999" y="261.429656" style="stroke: #000000; stroke-width: 0.8"/>
      </g>
     </g>
     <g id="text_6">
      <!-- 0.5 -->
      <g transform="translate(366.587436 276.027312) scale(0.1 -0.1)">
       <defs>
        <path id="DejaVuSans-18" d="M 691 4666 
L 3169 4666 
L 3169 4134 
L 1269 4134 
L 1269 2991 
Q 1406 3038 1543 3061 
Q 1681 3084 1819 3084 
Q 2600 3084 3056 2656 
Q 3513 2228 3513 1497 
Q 3513 744 3044 326 
Q 2575 -91 1722 -91 
Q 1428 -91 1123 -41 
Q 819 9 494 109 
L 494 744 
Q 775 591 1075 516 
Q 1375 441 1709 441 
Q 2250 441 2565 725 
Q 2881 1009 2881 1497 
Q 2881 1984 2565 2268 
Q 2250 2553 1709 2553 
Q 1456 2553 1204 2497 
Q 953 2441 691 2322 
L 691 4666 
z
" transform="scale(0.015625)"/>
       </defs>
       <use xlink:href="#DejaVuSans-13"/>
       <use xlink:href="#DejaVuSans-11" transform="translate(63.625 0)"/>
       <use xlink:href="#DejaVuSans-18" transform="translate(95.40625 0)"/>
      </g>
     </g>
    </g>
    <g id="text_7">
     <!-- Zipf S -->
     <g transform="translate(213.282891 290.028094) scale(0.1 -0.1)">
      <defs>
       <path id="DejaVuSans-3d" d="M 359 4666 
L 4025 4666 
L 4025 4184 
L 1075 531 
L 4097 531 
L 4097 0 
L 288 0 
L 288 481 
L 3238 4134 
L 359 4134 
L 359 4666 
z
" transform="scale(0.015625)"/>
       <path id="DejaVuSans-4c" d="M 603 3500 
L 1178 3500 
L 1178 0 
L 603 0 
L 603 3500 
z
M 603 4863 
L 1178 4863 
L 1178 4134 
L 603 4134 
L 603 4863 
z
" transform="scale(0.015625)"/>
       <path id="DejaVuSans-53" d="M 1159 525 
L 1159 -1331 
L 581 -1331 
L 581 3500 
L 1159 3500 
L 1159 2969 
Q 1341 3281 1617 3432 
Q 1894 3584 2278 3584 
Q 2916 3584 3314 3078 
Q 3713 2572 3713 1747 
Q 3713 922 3314 415 
Q 2916 -91 2278 -91 
Q 1894 -91 1617 61 
Q 1341 213 1159 525 
z
M 3116 1747 
Q 3116 2381 2855 2742 
Q 2594 3103 2138 3103 
Q 1681 3103 1420 2742 
Q 1159 2381 1159 1747 
Q 1159 1113 1420 752 
Q 1681 391 2138 391 
Q 2594 391 2855 752 
Q 3116 1113 3116 1747 
z
" transform="scale(0.015625)"/>
       <path id="DejaVuSans-49" d="M 2375 4863 
L 2375 4384 
L 1825 4384 
Q 1516 4384 1395 4259 
Q 1275 4134 1275 3809 
L 1275 3500 
L 2222 3500 
L 2222 3053 
L 1275 3053 
L 1275 0 
L 697 0 
L 697 3053 
L 147 3053 
L 147 3500 
L 697 3500 
L 697 3744 
Q 697 4328 969 4595 
Q 1241 4863 1831 4863 
L 2375 4863 
z
" transform="scale(0.015625)"/>
       <path id="DejaVuSans-3" transform="scale(0.015625)"/>
       <path id="DejaVuSans-36" d="M 3425 4513 
L 3425 3897 
Q 3066 4069 2747 4153 
Q 2428 4238 2131 4238 
Q 1616 4238 1336 4038 
Q 1056 3838 1056 3469 
Q 1056 3159 1242 3001 
Q 1428 2844 1947 2747 
L 2328 2669 
Q 3034 2534 3370 2195 
Q 3706 1856 3706 1288 
Q 3706 609 3251 259 
Q 2797 -91 1919 -91 
Q 1588 -91 1214 -16 
Q 841 59 441 206 
L 441 856 
Q 825 641 1194 531 
Q 1563 422 1919 422 
Q 2459 422 2753 634 
Q 3047 847 3047 1241 
Q 3047 1584 2836 1778 
Q 2625 1972 2144 2069 
L 1759 2144 
Q 1053 2284 737 2584 
Q 422 2884 422 3419 
Q 422 4038 858 4394 
Q 1294 4750 2059 4750 
Q 2388 4750 2728 4690 
Q 3069 4631 3425 4513 
z
" transform="scale(0.015625)"/>
      </defs>
      <use xlink:href="#DejaVuSans-3d"/>
      <use xlink:href="#DejaVuSans-4c" transform="translate(68.5 0)"/>
      <use xlink:href="#DejaVuSans-53" transform="translate(96.28125 0)"/>
      <use xlink:href="#DejaVuSans-49" transform="translate(159.765625 0)"/>
      <use xlink:href="#DejaVuSans-3" transform="translate(194.96875 0)"/>
      <use xlink:href="#DejaVuSans-36" transform="translate(226.75 0)"/>
     </g>
    </g>
   </g>
   <g id="matplotlib.axis_2">
    <g id="ytick_1">
     <g id="line2d_13">
      <path d="M 66.375781 261.017168 
L 389.213438 261.017168 
" clip-path="url(#p7f825450d4)" style="fill: none; stroke: #b0b0b0; stroke-opacity: 0.3; stroke-width: 0.8; stroke-linecap: square"/>
     </g>
     <g id="line2d_14">
      <defs>
       <path id="m6e4ebf8546" d="M 0 0 
L -3.5 0 
" style="stroke: #000000; stroke-width: 0.8"/>
      </defs>
      <g>
       <use xlink:href="#m6e4ebf8546" x="66.375781" y="261.017168" style="stroke: #000000; stroke-width: 0.8"/>
      </g>
     </g>
     <g id="text_8">
      <!-- 0 -->
      <g transform="translate(53.013281 264.815996) scale(0.1 -0.1)">
       <use xlink:href="#DejaVuSans-13"/>
      </g>
     </g>
    </g>
    <g id="ytick_2">
     <g id="line2d_15">
      <path d="M 66.375781 216.571125 
L 389.213438 216.571125 
" clip-path="url(#p7f825450d4)" style="fill: none; stroke: #b0b0b0; stroke-opacity: 0.3; stroke-width: 0.8; stroke-linecap: square"/>
     </g>
     <g id="line2d_16">
      <g>
       <use xlink:href="#m6e4ebf8546" x="66.375781" y="216.571125" style="stroke: #000000; stroke-width: 0.8"/>
      </g>
     </g>
     <g id="text_9">
      <!-- 100000 -->
      <g transform="translate(21.200781 220.369953) scale(0.1 -0.1)">
       <use xlink:href="#DejaVuSans-14"/>
       <use xlink:href="#DejaVuSans-13" transform="translate(63.625 0)"/>
       <use xlink:href="#DejaVuSans-13" transform="translate(127.25 0)"/>
       <use xlink:href="#DejaVuSans-13" transform="translate(190.875 0)"/>
       <use xlink:href="#DejaVuSans-13" transform="translate(254.5 0)"/>
       <use xlink:href="#DejaVuSans-13" transform="translate(318.125 0)"/>
      </g>
     </g>
    </g>
    <g id="ytick_3">
     <g id="line2d_17">
      <path d="M 66.375781 172.125082 
L 389.213438 172.125082 
" clip-path="url(#p7f825450d4)" style="fill: none; stroke: #b0b0b0; stroke-opacity: 0.3; stroke-width: 0.8; stroke-linecap: square"/>
     </g>
     <g id="line2d_18">
      <g>
       <use xlink:href="#m6e4ebf8546" x="66.375781" y="172.125082" style="stroke: #000000; stroke-width: 0.8"/>
      </g>
     </g>
     <g id="text_10">
      <!-- 200000 -->
      <g transform="translate(21.200781 175.92391) scale(0.1 -0.1)">
       <use xlink:href="#DejaVuSans-15"/>
       <use xlink:href="#DejaVuSans-13" transform="translate(63.625 0)"/>
       <use xlink:href="#DejaVuSans-13" transform="translate(127.25 0)"/>
       <use xlink:href="#DejaVuSans-13" transform="translate(190.875 0)"/>
       <use xlink:href="#DejaVuSans-13" transform="translate(254.5 0)"/>
       <use xlink:href="#DejaVuSans-13" transform="translate(318.125 0)"/>
      </g>
     </g>
    </g>
    <g id="ytick_4">
     <g id="line2d_19">
      <path d="M 66.375781 127.679039 
L 389.213438 127.679039 
" clip-path="url(#p7f825450d4)" style="fill: none; stroke: #b0b0b0; stroke-opacity: 0.3; stroke-width: 0.8; stroke-linecap: square"/>
     </g>
     <g id="line2d_20">
      <g>
       <use xlink:href="#m6e4ebf8546" x="66.375781" y="127.679039" style="stroke: #000000; stroke-width: 0.8"/>
      </g>
     </g>
     <g id="text_11">
      <!-- 300000 -->
      <g transform="translate(21.200781 131.477867) scale(0.1 -0.1)">
       <use xlink:href="#DejaVuSans-16"/>
       <use xlink:href="#DejaVuSans-13" transform="translate(63.625 0)"/>
       <use xlink:href="#DejaVuSans-13" transform="translate(127.25 0)"/>
       <use xlink:href="#DejaVuSans-13" transform="translate(190.875 0)"/>
       <use xlink:href="#DejaVuSans-13" transform="translate(254.5 0)"/>
       <use xlink:href="#DejaVuSans-13" transform="translate(318.125 0)"/>
      </g>
     </g>
    </g>
    <g id="ytick_5">
     <g id="line2d_21">
      <path d="M 66.375781 83.232996 
L 389.213438 83.232996 
" clip-path="url(#p7f825450d4)" style="fill: none; stroke: #b0b0b0; stroke-opacity: 0.3; stroke-width: 0.8; stroke-linecap: square"/>
     </g>
     <g id="line2d_22">
      <g>
       <use xlink:href="#m6e4ebf8546" x="66.375781" y="83.232996" style="stroke: #000000; stroke-width: 0.8"/>
      </g>
     </g>
     <g id="text_12">
      <!-- 400000 -->
      <g transform="translate(21.200781 87.031825) scale(0.1 -0.1)">
       <use xlink:href="#DejaVuSans-17"/>
       <use xlink:href="#DejaVuSans-13" transform="translate(63.625 0)"/>
       <use xlink:href="#DejaVuSans-13" transform="translate(127.25 0)"/>
       <use xlink:href="#DejaVuSans-13" transform="translate(190.875 0)"/>
       <use xlink:href="#DejaVuSans-13" transform="translate(254.5 0)"/>
       <use xlink:href="#DejaVuSans-13" transform="translate(318.125 0)"/>
      </g>
     </g>
    </g>
    <g id="ytick_6">
     <g id="line2d_23">
      <path d="M 66.375781 38.786954 
L 389.213438 38.786954 
" clip-path="url(#p7f825450d4)" style="fill: none; stroke: #b0b0b0; stroke-opacity: 0.3; stroke-width: 0.8; stroke-linecap: square"/>
     </g>
     <g id="line2d_24">
      <g>
       <use xlink:href="#m6e4ebf8546" x="66.375781" y="38.786954" style="stroke: #000000; stroke-width: 0.8"/>
      </g>
     </g>
     <g id="text_13">
      <!-- 500000 -->
      <g transform="translate(21.200781 42.585782) scale(0.1 -0.1)">
       <use xlink:href="#DejaVuSans-18"/>
       <use xlink:href="#DejaVuSans-13" transform="translate(63.625 0)"/>
       <use xlink:href="#DejaVuSans-13" transform="translate(127.25 0)"/>
       <use xlink:href="#DejaVuSans-13" transform="translate(190.875 0)"/>
       <use xlink:href="#DejaVuSans-13" transform="translate(254.5 0)"/>
       <use xlink:href="#DejaVuSans-13" transform="translate(318.125 0)"/>
      </g>
     </g>
    </g>
    <g id="text_14">
     <!-- Step time (µs) -->
     <g transform="translate(14.798437 185.581112) rotate(-90) scale(0.1 -0.1)">
      <defs>
       <path id="DejaVuSans-57" d="M 1172 4494 
L 1172 3500 
L 2356 3500 
L 2356 3053 
L 1172 3053 
L 1172 1153 
Q 1172 725 1289 603 
Q 1406 481 1766 481 
L 2356 481 
L 2356 0 
L 1766 0 
Q 1100 0 847 248 
Q 594 497 594 1153 
L 594 3053 
L 172 3053 
L 172 3500 
L 594 3500 
L 594 4494 
L 1172 4494 
z
" transform="scale(0.015625)"/>
       <path id="DejaVuSans-48" d="M 3597 1894 
L 3597 1613 
L 953 1613 
Q 991 1019 1311 708 
Q 1631 397 2203 397 
Q 2534 397 2845 478 
Q 3156 559 3463 722 
L 3463 178 
Q 3153 47 2828 -22 
Q 2503 -91 2169 -91 
Q 1331 -91 842 396 
Q 353 884 353 1716 
Q 353 2575 817 3079 
Q 1281 3584 2069 3584 
Q 2775 3584 3186 3129 
Q 3597 2675 3597 1894 
z
M 3022 2063 
Q 3016 2534 2758 2815 
Q 2500 3097 2075 3097 
Q 1594 3097 1305 2825 
Q 1016 2553 972 2059 
L 3022 2063 
z
" transform="scale(0.015625)"/>
       <path id="DejaVuSans-50" d="M 3328 2828 
Q 3544 3216 3844 3400 
Q 4144 3584 4550 3584 
Q 5097 3584 5394 3201 
Q 5691 2819 5691 2113 
L 5691 0 
L 5113 0 
L 5113 2094 
Q 5113 2597 4934 2840 
Q 4756 3084 4391 3084 
Q 3944 3084 3684 2787 
Q 3425 2491 3425 1978 
L 3425 0 
L 2847 0 
L 2847 2094 
Q 2847 2600 2669 2842 
Q 2491 3084 2119 3084 
Q 1678 3084 1418 2786 
Q 1159 2488 1159 1978 
L 1159 0 
L 581 0 
L 581 3500 
L 1159 3500 
L 1159 2956 
Q 1356 3278 1631 3431 
Q 1906 3584 2284 3584 
Q 2666 3584 2933 3390 
Q 3200 3197 3328 2828 
z
" transform="scale(0.015625)"/>
       <path id="DejaVuSans-b" d="M 1984 4856 
Q 1566 4138 1362 3434 
Q 1159 2731 1159 2009 
Q 1159 1288 1364 580 
Q 1569 -128 1984 -844 
L 1484 -844 
Q 1016 -109 783 600 
Q 550 1309 550 2009 
Q 550 2706 781 3412 
Q 1013 4119 1484 4856 
L 1984 4856 
z
" transform="scale(0.015625)"/>
       <path id="DejaVuSans-77" d="M 544 -1331 
L 544 3500 
L 1119 3500 
L 1119 1325 
Q 1119 872 1334 640 
Q 1550 409 1972 409 
Q 2434 409 2667 671 
Q 2900 934 2900 1459 
L 2900 3500 
L 3475 3500 
L 3475 806 
Q 3475 619 3529 530 
Q 3584 441 3700 441 
Q 3728 441 3778 458 
Q 3828 475 3916 513 
L 3916 50 
Q 3788 -22 3673 -56 
Q 3559 -91 3450 -91 
Q 3234 -91 3106 31 
Q 2978 153 2931 403 
Q 2775 156 2548 32 
Q 2322 -91 2016 -91 
Q 1697 -91 1473 31 
Q 1250 153 1119 397 
L 1119 -1331 
L 544 -1331 
z
" transform="scale(0.015625)"/>
       <path id="DejaVuSans-56" d="M 2834 3397 
L 2834 2853 
Q 2591 2978 2328 3040 
Q 2066 3103 1784 3103 
Q 1356 3103 1142 2972 
Q 928 2841 928 2578 
Q 928 2378 1081 2264 
Q 1234 2150 1697 2047 
L 1894 2003 
Q 2506 1872 2764 1633 
Q 3022 1394 3022 966 
Q 3022 478 2636 193 
Q 2250 -91 1575 -91 
Q 1294 -91 989 -36 
Q 684 19 347 128 
L 347 722 
Q 666 556 975 473 
Q 1284 391 1588 391 
Q 1994 391 2212 530 
Q 2431 669 2431 922 
Q 2431 1156 2273 1281 
Q 2116 1406 1581 1522 
L 1381 1569 
Q 847 1681 609 1914 
Q 372 2147 372 2553 
Q 372 3047 722 3315 
Q 1072 3584 1716 3584 
Q 2034 3584 2315 3537 
Q 2597 3491 2834 3397 
z
" transform="scale(0.015625)"/>
       <path id="DejaVuSans-c" d="M 513 4856 
L 1013 4856 
Q 1481 4119 1714 3412 
Q 1947 2706 1947 2009 
Q 1947 1309 1714 600 
Q 1481 -109 1013 -844 
L 513 -844 
Q 928 -128 1133 580 
Q 1338 1288 1338 2009 
Q 1338 2731 1133 3434 
Q 928 4138 513 4856 
z
" transform="scale(0.015625)"/>
      </defs>
      <use xlink:href="#DejaVuSans-36"/>
      <use xlink:href="#DejaVuSans-57" transform="translate(63.484375 0)"/>
      <use xlink:href="#DejaVuSans-48" transform="translate(102.6875 0)"/>
      <use xlink:href="#DejaVuSans-53" transform="translate(164.21875 0)"/>
      <use xlink:href="#DejaVuSans-3" transform="translate(227.703125 0)"/>
      <use xlink:href="#DejaVuSans-57" transform="translate(259.484375 0)"/>
      <use xlink:href="#DejaVuSans-4c" transform="translate(298.6875 0)"/>
      <use xlink:href="#DejaVuSans-50" transform="translate(326.46875 0)"/>
      <use xlink:href="#DejaVuSans-48" transform="translate(423.875 0)"/>
      <use xlink:href="#DejaVuSans-3" transform="translate(485.40625 0)"/>
      <use xlink:href="#DejaVuSans-b" transform="translate(517.1875 0)"/>
      <use xlink:href="#DejaVuSans-77" transform="translate(556.203125 0)"/>
      <use xlink:href="#DejaVuSans-56" transform="translate(619.828125 0)"/>
      <use xlink:href="#DejaVuSans-c" transform="translate(671.921875 0)"/>
     </g>
    </g>
   </g>
   <g id="line2d_25">
    <path d="M 374.538999 250.457436 
" clip-path="url(#p7f825450d4)" style="fill: none; stroke: #1f77b4; stroke-width: 1.5; stroke-linecap: square"/>
    <defs>
     <path id="m89420dfed3" d="M 0 3 
C 0.795609 3 1.55874 2.683901 2.12132 2.12132 
C 2.683901 1.55874 3 0.795609 3 0 
C 3 -0.795609 2.683901 -1.55874 2.12132 -2.12132 
C 1.55874 -2.683901 0.795609 -3 0 -3 
C -0.795609 -3 -1.55874 -2.683901 -2.12132 -2.12132 
C -2.683901 -1.55874 -3 -0.795609 -3 0 
C -3 0.795609 -2.683901 1.55874 -2.12132 2.12132 
C -1.55874 2.683901 -0.795609 3 0 3 
z
" style="stroke: #1f77b4"/>
    </defs>
    <g clip-path="url(#p7f825450d4)">
     <use xlink:href="#m89420dfed3" x="374.538999" y="250.457436" style="fill: #1f77b4; stroke: #1f77b4"/>
    </g>
   </g>
   <g id="line2d_26">
    <path d="M 81.05022 235.952915 
L 374.538999 48.765674 
" clip-path="url(#p7f825450d4)" style="fill: none; stroke: #ff7f0e; stroke-width: 1.5; stroke-linecap: square"/>
    <defs>
     <path id="mdb21708877" d="M 0 3 
C 0.795609 3 1.55874 2.683901 2.12132 2.12132 
C 2.683901 1.55874 3 0.795609 3 0 
C 3 -0.795609 2.683901 -1.55874 2.12132 -2.12132 
C 1.55874 -2.683901 0.795609 -3 0 -3 
C -0.795609 -3 -1.55874 -2.683901 -2.12132 -2.12132 
C -2.683901 -1.55874 -3 -0.795609 -3 0 
C -3 0.795609 -2.683901 1.55874 -2.12132 2.12132 
C -1.55874 2.683901 -0.795609 3 0 3 
z
" style="stroke: #ff7f0e"/>
    </defs>
    <g clip-path="url(#p7f825450d4)">
     <use xlink:href="#mdb21708877" x="81.05022" y="235.952915" style="fill: #ff7f0e; stroke: #ff7f0e"/>
     <use xlink:href="#mdb21708877" x="374.538999" y="48.765674" style="fill: #ff7f0e; stroke: #ff7f0e"/>
    </g>
   </g>
   <g id="line2d_27">
    <path d="M 374.538999 229.255474 
" clip-path="url(#p7f825450d4)" style="fill: none; stroke: #2ca02c; stroke-width: 1.5; stroke-linecap: square"/>
    <defs>
     <path id="mf2e8c27524" d="M 0 3 
C 0.795609 3 1.55874 2.683901 2.12132 2.12132 
C 2.683901 1.55874 3 0.795609 3 0 
C 3 -0.795609 2.683901 -1.55874 2.12132 -2.12132 
C 1.55874 -2.683901 0.795609 -3 0 -3 
C -0.795609 -3 -1.55874 -2.683901 -2.12132 -2.12132 
C -2.683901 -1.55874 -3 -0.795609 -3 0 
C -3 0.795609 -2.683901 1.55874 -2.12132 2.12132 
C -1.55874 2.683901 -0.795609 3 0 3 
z
" style="stroke: #2ca02c"/>
    </defs>
    <g clip-path="url(#p7f825450d4)">
     <use xlink:href="#mf2e8c27524" x="374.538999" y="229.255474" style="fill: #2ca02c; stroke: #2ca02c"/>
    </g>
   </g>
   <g id="line2d_28">
    <path d="M 374.538999 251.3028 
" clip-path="url(#p7f825450d4)" style="fill: none; stroke: #d62728; stroke-width: 1.5; stroke-linecap: square"/>
    <defs>
     <path id="m2d3a1822a8" d="M 0 3 
C 0.795609 3 1.55874 2.683901 2.12132 2.12132 
C 2.683901 1.55874 3 0.795609 3 0 
C 3 -0.795609 2.683901 -1.55874 2.12132 -2.12132 
C 1.55874 -2.683901 0.795609 -3 0 -3 
C -0.795609 -3 -1.55874 -2.683901 -2.12132 -2.12132 
C -2.683901 -1.55874 -3 -0.795609 -3 0 
C -3 0.795609 -2.683901 1.55874 -2.12132 2.12132 
C -1.55874 2.683901 -0.795609 3 0 3 
z
" style="stroke: #d62728"/>
    </defs>
    <g clip-path="url(#p7f825450d4)">
     <use xlink:href="#m2d3a1822a8" x="374.538999" y="251.3028" style="fill: #d62728; stroke: #d62728"/>
    </g>
   </g>
   <g id="line2d_29">
    <path d="M 81.05022 250.328418 
L 374.538999 195.304042 
" clip-path="url(#p7f825450d4)" style="fill: none; stroke: #9467bd; stroke-width: 1.5; stroke-linecap: square"/>
    <defs>
     <path id="mc8885b9b3d" d="M 0 3 
C 0.795609 3 1.55874 2.683901 2.12132 2.12132 
C 2.683901 1.55874 3 0.795609 3 0 
C 3 -0.795609 2.683901 -1.55874 2.12132 -2.12132 
C 1.55874 -2.683901 0.795609 -3 0 -3 
C -0.795609 -3 -1.55874 -2.683901 -2.12132 -2.12132 
C -2.683901 -1.55874 -3 -0.795609 -3 0 
C -3 0.795609 -2.683901 1.55874 -2.12132 2.12132 
C -1.55874 2.683901 -0.795609 3 0 3 
z
" style="stroke: #9467bd"/>
    </defs>
    <g clip-path="url(#p7f825450d4)">
     <use xlink:href="#mc8885b9b3d" x="81.05022" y="250.328418" style="fill: #9467bd; stroke: #9467bd"/>
     <use xlink:href="#mc8885b9b3d" x="374.538999" y="195.304042" style="fill: #9467bd; stroke: #9467bd"/>
    </g>
   </g>
   <g id="line2d_30">
    <path d="M 374.538999 232.832856 
" clip-path="url(#p7f825450d4)" style="fill: none; stroke: #8c564b; stroke-width: 1.5; stroke-linecap: square"/>
    <defs>
     <path id="m104988fb0a" d="M 0 3 
C 0.795609 3 1.55874 2.683901 2.12132 2.12132 
C 2.683901 1.55874 3 0.795609 3 0 
C 3 -0.795609 2.683901 -1.55874 2.12132 -2.12132 
C 1.55874 -2.683901 0.795609 -3 0 -3 
C -0.795609 -3 -1.55874 -2.683901 -2.12132 -2.12132 
C -2.683901 -1.55874 -3 -0.795609 -3 0 
C -3 0.795609 -2.683901 1.55874 -2.12132 2.12132 
C -1.55874 2.683901 -0.795609 3 0 3 
z
" style="stroke: #8c564b"/>
    </defs>
    <g clip-path="url(#p7f825450d4)">
     <use xlink:href="#m104988fb0a" x="374.538999" y="232.832856" style="fill: #8c564b; stroke: #8c564b"/>
    </g>
   </g>
   <g id="patch_3">
    <path d="M 66.375781 261.429656 
L 66.375781 38.638818 
" style="fill: none; stroke: #000000; stroke-width: 0.8; stroke-linejoin: miter; stroke-linecap: square"/>
   </g>
   <g id="patch_4">
    <path d="M 389.213438 261.429656 
L 389.213438 38.638818 
" style="fill: none; stroke: #000000; stroke-width: 0.8; stroke-linejoin: miter; stroke-linecap: square"/>
   </g>
   <g id="patch_5">
    <path d="M 66.375781 261.429656 
L 389.213438 261.429656 
" style="fill: none; stroke: #000000; stroke-width: 0.8; stroke-linejoin: miter; stroke-linecap: square"/>
   </g>
   <g id="patch_6">
    <path d="M 66.375781 38.638818 
L 389.213438 38.638818 
" style="fill: none; stroke: #000000; stroke-width: 0.8; stroke-linejoin: miter; stroke-linecap: square"/>
   </g>
   <g id="legend_1">
    <g id="patch_7">
     <path d="M 71.275781 107.242099 
L 220.936875 107.242099 
Q 222.336875 107.242099 222.336875 105.842099 
L 222.336875 43.538818 
Q 222.336875 42.138818 220.936875 42.138818 
L 71.275781 42.138818 
Q 69.875781 42.138818 69.875781 43.538818 
L 69.875781 105.842099 
Q 69.875781 107.242099 71.275781 107.242099 
z
" style="fill: #ffffff; opacity: 0.8; stroke: #cccccc; stroke-linejoin: miter"/>
    </g>
    <g id="line2d_31">
     <path d="M 72.675781 47.807724 
L 79.675781 47.807724 
L 86.675781 47.807724 
" style="fill: none; stroke: #1f77b4; stroke-width: 1.5; stroke-linecap: square"/>
     <g>
      <use xlink:href="#m89420dfed3" x="79.675781" y="47.807724" style="fill: #1f77b4; stroke: #1f77b4"/>
     </g>
    </g>
    <g id="text_15">
     <!-- S=1, scheme=packet_spray, B=16 -->
     <g transform="translate(92.275781 50.257724) scale(0.07 -0.07)">
      <defs>
       <path id="DejaVuSans-20" d="M 678 2906 
L 4684 2906 
L 4684 2381 
L 678 2381 
L 678 2906 
z
M 678 1631 
L 4684 1631 
L 4684 1100 
L 678 1100 
L 678 1631 
z
" transform="scale(0.015625)"/>
       <path id="DejaVuSans-f" d="M 750 794 
L 1409 794 
L 1409 256 
L 897 -744 
L 494 -744 
L 750 256 
L 750 794 
z
" transform="scale(0.015625)"/>
       <path id="DejaVuSans-46" d="M 3122 3366 
L 3122 2828 
Q 2878 2963 2633 3030 
Q 2388 3097 2138 3097 
Q 1578 3097 1268 2742 
Q 959 2388 959 1747 
Q 959 1106 1268 751 
Q 1578 397 2138 397 
Q 2388 397 2633 464 
Q 2878 531 3122 666 
L 3122 134 
Q 2881 22 2623 -34 
Q 2366 -91 2075 -91 
Q 1284 -91 818 406 
Q 353 903 353 1747 
Q 353 2603 823 3093 
Q 1294 3584 2113 3584 
Q 2378 3584 2631 3529 
Q 2884 3475 3122 3366 
z
" transform="scale(0.015625)"/>
       <path id="DejaVuSans-4b" d="M 3513 2113 
L 3513 0 
L 2938 0 
L 2938 2094 
Q 2938 2591 2744 2837 
Q 2550 3084 2163 3084 
Q 1697 3084 1428 2787 
Q 1159 2491 1159 1978 
L 1159 0 
L 581 0 
L 581 4863 
L 1159 4863 
L 1159 2956 
Q 1366 3272 1645 3428 
Q 1925 3584 2291 3584 
Q 2894 3584 3203 3211 
Q 3513 2838 3513 2113 
z
" transform="scale(0.015625)"/>
       <path id="DejaVuSans-44" d="M 2194 1759 
Q 1497 1759 1228 1600 
Q 959 1441 959 1056 
Q 959 750 1161 570 
Q 1363 391 1709 391 
Q 2188 391 2477 730 
Q 2766 1069 2766 1631 
L 2766 1759 
L 2194 1759 
z
M 3341 1997 
L 3341 0 
L 2766 0 
L 2766 531 
Q 2569 213 2275 61 
Q 1981 -91 1556 -91 
Q 1019 -91 701 211 
Q 384 513 384 1019 
Q 384 1609 779 1909 
Q 1175 2209 1959 2209 
L 2766 2209 
L 2766 2266 
Q 2766 2663 2505 2880 
Q 2244 3097 1772 3097 
Q 1472 3097 1187 3025 
Q 903 2953 641 2809 
L 641 3341 
Q 956 3463 1253 3523 
Q 1550 3584 1831 3584 
Q 2591 3584 2966 3190 
Q 3341 2797 3341 1997 
z
" transform="scale(0.015625)"/>
       <path id="DejaVuSans-4e" d="M 581 4863 
L 1159 4863 
L 1159 1991 
L 2875 3500 
L 3609 3500 
L 1753 1863 
L 3688 0 
L 2938 0 
L 1159 1709 
L 1159 0 
L 581 0 
L 581 4863 
z
" transform="scale(0.015625)"/>
       <path id="DejaVuSans-42" d="M 3263 -1063 
L 3263 -1509 
L -63 -1509 
L -63 -1063 
L 3263 -1063 
z
" transform="scale(0.015625)"/>
       <path id="DejaVuSans-55" d="M 2631 2963 
Q 2534 3019 2420 3045 
Q 2306 3072 2169 3072 
Q 1681 3072 1420 2755 
Q 1159 2438 1159 1844 
L 1159 0 
L 581 0 
L 581 3500 
L 1159 3500 
L 1159 2956 
Q 1341 3275 1631 3429 
Q 1922 3584 2338 3584 
Q 2397 3584 2469 3576 
Q 2541 3569 2628 3553 
L 2631 2963 
z
" transform="scale(0.015625)"/>
       <path id="DejaVuSans-5c" d="M 2059 -325 
Q 1816 -950 1584 -1140 
Q 1353 -1331 966 -1331 
L 506 -1331 
L 506 -850 
L 844 -850 
Q 1081 -850 1212 -737 
Q 1344 -625 1503 -206 
L 1606 56 
L 191 3500 
L 800 3500 
L 1894 763 
L 2988 3500 
L 3597 3500 
L 2059 -325 
z
" transform="scale(0.015625)"/>
       <path id="DejaVuSans-25" d="M 1259 2228 
L 1259 519 
L 2272 519 
Q 2781 519 3026 730 
Q 3272 941 3272 1375 
Q 3272 1813 3026 2020 
Q 2781 2228 2272 2228 
L 1259 2228 
z
M 1259 4147 
L 1259 2741 
L 2194 2741 
Q 2656 2741 2882 2914 
Q 3109 3088 3109 3444 
Q 3109 3797 2882 3972 
Q 2656 4147 2194 4147 
L 1259 4147 
z
M 628 4666 
L 2241 4666 
Q 2963 4666 3353 4366 
Q 3744 4066 3744 3513 
Q 3744 3084 3544 2831 
Q 3344 2578 2956 2516 
Q 3422 2416 3680 2098 
Q 3938 1781 3938 1306 
Q 3938 681 3513 340 
Q 3088 0 2303 0 
L 628 0 
L 628 4666 
z
" transform="scale(0.015625)"/>
       <path id="DejaVuSans-19" d="M 2113 2584 
Q 1688 2584 1439 2293 
Q 1191 2003 1191 1497 
Q 1191 994 1439 701 
Q 1688 409 2113 409 
Q 2538 409 2786 701 
Q 3034 994 3034 1497 
Q 3034 2003 2786 2293 
Q 2538 2584 2113 2584 
z
M 3366 4563 
L 3366 3988 
Q 3128 4100 2886 4159 
Q 2644 4219 2406 4219 
Q 1781 4219 1451 3797 
Q 1122 3375 1075 2522 
Q 1259 2794 1537 2939 
Q 1816 3084 2150 3084 
Q 2853 3084 3261 2657 
Q 3669 2231 3669 1497 
Q 3669 778 3244 343 
Q 2819 -91 2113 -91 
Q 1303 -91 875 529 
Q 447 1150 447 2328 
Q 447 3434 972 4092 
Q 1497 4750 2381 4750 
Q 2619 4750 2861 4703 
Q 3103 4656 3366 4563 
z
" transform="scale(0.015625)"/>
      </defs>
      <use xlink:href="#DejaVuSans-36"/>
      <use xlink:href="#DejaVuSans-20" transform="translate(63.484375 0)"/>
      <use xlink:href="#DejaVuSans-14" transform="translate(147.28125 0)"/>
      <use xlink:href="#DejaVuSans-f" transform="translate(210.90625 0)"/>
      <use xlink:href="#DejaVuSans-3" transform="translate(242.6875 0)"/>
      <use xlink:href="#DejaVuSans-56" transform="translate(274.46875 0)"/>
      <use xlink:href="#DejaVuSans-46" transform="translate(326.5625 0)"/>
      <use xlink:href="#DejaVuSans-4b" transform="translate(381.546875 0)"/>
      <use xlink:href="#DejaVuSans-48" transform="translate(444.921875 0)"/>
      <use xlink:href="#DejaVuSans-50" transform="translate(506.453125 0)"/>
      <use xlink:href="#DejaVuSans-48" transform="translate(603.859375 0)"/>
      <use xlink:href="#DejaVuSans-20" transform="translate(665.390625 0)"/>
      <use xlink:href="#DejaVuSans-53" transform="translate(749.1875 0)"/>
      <use xlink:href="#DejaVuSans-44" transform="translate(812.671875 0)"/>
      <use xlink:href="#DejaVuSans-46" transform="translate(873.953125 0)"/>
      <use xlink:href="#DejaVuSans-4e" transform="translate(928.9375 0)"/>
      <use xlink:href="#DejaVuSans-48" transform="translate(983.28125 0)"/>
      <use xlink:href="#DejaVuSans-57" transform="translate(1044.8125 0)"/>
      <use xlink:href="#DejaVuSans-42" transform="translate(1084.015625 0)"/>
      <use xlink:href="#DejaVuSans-56" transform="translate(1134.015625 0)"/>
      <use xlink:href="#DejaVuSans-53" transform="translate(1186.109375 0)"/>
      <use xlink:href="#DejaVuSans-55" transform="translate(1249.59375 0)"/>
      <use xlink:href="#DejaVuSans-44" transform="translate(1290.703125 0)"/>
      <use xlink:href="#DejaVuSans-5c" transform="translate(1351.984375 0)"/>
      <use xlink:href="#DejaVuSans-f" transform="translate(1411.171875 0)"/>
      <use xlink:href="#DejaVuSans-3" transform="translate(1442.953125 0)"/>
      <use xlink:href="#DejaVuSans-25" transform="translate(1474.734375 0)"/>
      <use xlink:href="#DejaVuSans-20" transform="translate(1543.34375 0)"/>
      <use xlink:href="#DejaVuSans-14" transform="translate(1627.140625 0)"/>
      <use xlink:href="#DejaVuSans-19" transform="translate(1690.765625 0)"/>
     </g>
    </g>
    <g id="line2d_32">
     <path d="M 72.675781 58.308271 
L 79.675781 58.308271 
L 86.675781 58.308271 
" style="fill: none; stroke: #ff7f0e; stroke-width: 1.5; stroke-linecap: square"/>
     <g>
      <use xlink:href="#mdb21708877" x="79.675781" y="58.308271" style="fill: #ff7f0e; stroke: #ff7f0e"/>
     </g>
    </g>
    <g id="text_16">
     <!-- S=1, scheme=packet_spray, B=256 -->
     <g transform="translate(92.275781 60.758271) scale(0.07 -0.07)">
      <use xlink:href="#DejaVuSans-36"/>
      <use xlink:href="#DejaVuSans-20" transform="translate(63.484375 0)"/>
      <use xlink:href="#DejaVuSans-14" transform="translate(147.28125 0)"/>
      <use xlink:href="#DejaVuSans-f" transform="translate(210.90625 0)"/>
      <use xlink:href="#DejaVuSans-3" transform="translate(242.6875 0)"/>
      <use xlink:href="#DejaVuSans-56" transform="translate(274.46875 0)"/>
      <use xlink:href="#DejaVuSans-46" transform="translate(326.5625 0)"/>
      <use xlink:href="#DejaVuSans-4b" transform="translate(381.546875 0)"/>
      <use xlink:href="#DejaVuSans-48" transform="translate(444.921875 0)"/>
      <use xlink:href="#DejaVuSans-50" transform="translate(506.453125 0)"/>
      <use xlink:href="#DejaVuSans-48" transform="translate(603.859375 0)"/>
      <use xlink:href="#DejaVuSans-20" transform="translate(665.390625 0)"/>
      <use xlink:href="#DejaVuSans-53" transform="translate(749.1875 0)"/>
      <use xlink:href="#DejaVuSans-44" transform="translate(812.671875 0)"/>
      <use xlink:href="#DejaVuSans-46" transform="translate(873.953125 0)"/>
      <use xlink:href="#DejaVuSans-4e" transform="translate(928.9375 0)"/>
      <use xlink:href="#DejaVuSans-48" transform="translate(983.28125 0)"/>
      <use xlink:href="#DejaVuSans-57" transform="translate(1044.8125 0)"/>
      <use xlink:href="#DejaVuSans-42" transform="translate(1084.015625 0)"/>
      <use xlink:href="#DejaVuSans-56" transform="translate(1134.015625 0)"/>
      <use xlink:href="#DejaVuSans-53" transform="translate(1186.109375 0)"/>
      <use xlink:href="#DejaVuSans-55" transform="translate(1249.59375 0)"/>
      <use xlink:href="#DejaVuSans-44" transform="translate(1290.703125 0)"/>
      <use xlink:href="#DejaVuSans-5c" transform="translate(1351.984375 0)"/>
      <use xlink:href="#DejaVuSans-f" transform="translate(1411.171875 0)"/>
      <use xlink:href="#DejaVuSans-3" transform="translate(1442.953125 0)"/>
      <use xlink:href="#DejaVuSans-25" transform="translate(1474.734375 0)"/>
      <use xlink:href="#DejaVuSans-20" transform="translate(1543.34375 0)"/>
      <use xlink:href="#DejaVuSans-15" transform="translate(1627.140625 0)"/>
      <use xlink:href="#DejaVuSans-18" transform="translate(1690.765625 0)"/>
      <use xlink:href="#DejaVuSans-19" transform="translate(1754.390625 0)"/>
     </g>
    </g>
    <g id="line2d_33">
     <path d="M 72.675781 68.808818 
L 79.675781 68.808818 
L 86.675781 68.808818 
" style="fill: none; stroke: #2ca02c; stroke-width: 1.5; stroke-linecap: square"/>
     <g>
      <use xlink:href="#mf2e8c27524" x="79.675781" y="68.808818" style="fill: #2ca02c; stroke: #2ca02c"/>
     </g>
    </g>
    <g id="text_17">
     <!-- S=1, scheme=packet_spray, B=64 -->
     <g transform="translate(92.275781 71.258818) scale(0.07 -0.07)">
      <use xlink:href="#DejaVuSans-36"/>
      <use xlink:href="#DejaVuSans-20" transform="translate(63.484375 0)"/>
      <use xlink:href="#DejaVuSans-14" transform="translate(147.28125 0)"/>
      <use xlink:href="#DejaVuSans-f" transform="translate(210.90625 0)"/>
      <use xlink:href="#DejaVuSans-3" transform="translate(242.6875 0)"/>
      <use xlink:href="#DejaVuSans-56" transform="translate(274.46875 0)"/>
      <use xlink:href="#DejaVuSans-46" transform="translate(326.5625 0)"/>
      <use xlink:href="#DejaVuSans-4b" transform="translate(381.546875 0)"/>
      <use xlink:href="#DejaVuSans-48" transform="translate(444.921875 0)"/>
      <use xlink:href="#DejaVuSans-50" transform="translate(506.453125 0)"/>
      <use xlink:href="#DejaVuSans-48" transform="translate(603.859375 0)"/>
      <use xlink:href="#DejaVuSans-20" transform="translate(665.390625 0)"/>
      <use xlink:href="#DejaVuSans-53" transform="translate(749.1875 0)"/>
      <use xlink:href="#DejaVuSans-44" transform="translate(812.671875 0)"/>
      <use xlink:href="#DejaVuSans-46" transform="translate(873.953125 0)"/>
      <use xlink:href="#DejaVuSans-4e" transform="translate(928.9375 0)"/>
      <use xlink:href="#DejaVuSans-48" transform="translate(983.28125 0)"/>
      <use xlink:href="#DejaVuSans-57" transform="translate(1044.8125 0)"/>
      <use xlink:href="#DejaVuSans-42" transform="translate(1084.015625 0)"/>
      <use xlink:href="#DejaVuSans-56" transform="translate(1134.015625 0)"/>
      <use xlink:href="#DejaVuSans-53" transform="translate(1186.109375 0)"/>
      <use xlink:href="#DejaVuSans-55" transform="translate(1249.59375 0)"/>
      <use xlink:href="#DejaVuSans-44" transform="translate(1290.703125 0)"/>
      <use xlink:href="#DejaVuSans-5c" transform="translate(1351.984375 0)"/>
      <use xlink:href="#DejaVuSans-f" transform="translate(1411.171875 0)"/>
      <use xlink:href="#DejaVuSans-3" transform="translate(1442.953125 0)"/>
      <use xlink:href="#DejaVuSans-25" transform="translate(1474.734375 0)"/>
      <use xlink:href="#DejaVuSans-20" transform="translate(1543.34375 0)"/>
      <use xlink:href="#DejaVuSans-19" transform="translate(1627.140625 0)"/>
      <use xlink:href="#DejaVuSans-17" transform="translate(1690.765625 0)"/>
     </g>
    </g>
    <g id="line2d_34">
     <path d="M 72.675781 79.309365 
L 79.675781 79.309365 
L 86.675781 79.309365 
" style="fill: none; stroke: #d62728; stroke-width: 1.5; stroke-linecap: square"/>
     <g>
      <use xlink:href="#m2d3a1822a8" x="79.675781" y="79.309365" style="fill: #d62728; stroke: #d62728"/>
     </g>
    </g>
    <g id="text_18">
     <!-- S=1, scheme=ub_rg, B=16 -->
     <g transform="translate(92.275781 81.759365) scale(0.07 -0.07)">
      <defs>
       <path id="DejaVuSans-58" d="M 544 1381 
L 544 3500 
L 1119 3500 
L 1119 1403 
Q 1119 906 1312 657 
Q 1506 409 1894 409 
Q 2359 409 2629 706 
Q 2900 1003 2900 1516 
L 2900 3500 
L 3475 3500 
L 3475 0 
L 2900 0 
L 2900 538 
Q 2691 219 2414 64 
Q 2138 -91 1772 -91 
Q 1169 -91 856 284 
Q 544 659 544 1381 
z
M 1991 3584 
L 1991 3584 
z
" transform="scale(0.015625)"/>
       <path id="DejaVuSans-45" d="M 3116 1747 
Q 3116 2381 2855 2742 
Q 2594 3103 2138 3103 
Q 1681 3103 1420 2742 
Q 1159 2381 1159 1747 
Q 1159 1113 1420 752 
Q 1681 391 2138 391 
Q 2594 391 2855 752 
Q 3116 1113 3116 1747 
z
M 1159 2969 
Q 1341 3281 1617 3432 
Q 1894 3584 2278 3584 
Q 2916 3584 3314 3078 
Q 3713 2572 3713 1747 
Q 3713 922 3314 415 
Q 2916 -91 2278 -91 
Q 1894 -91 1617 61 
Q 1341 213 1159 525 
L 1159 0 
L 581 0 
L 581 4863 
L 1159 4863 
L 1159 2969 
z
" transform="scale(0.015625)"/>
       <path id="DejaVuSans-4a" d="M 2906 1791 
Q 2906 2416 2648 2759 
Q 2391 3103 1925 3103 
Q 1463 3103 1205 2759 
Q 947 2416 947 1791 
Q 947 1169 1205 825 
Q 1463 481 1925 481 
Q 2391 481 2648 825 
Q 2906 1169 2906 1791 
z
M 3481 434 
Q 3481 -459 3084 -895 
Q 2688 -1331 1869 -1331 
Q 1566 -1331 1297 -1286 
Q 1028 -1241 775 -1147 
L 775 -588 
Q 1028 -725 1275 -790 
Q 1522 -856 1778 -856 
Q 2344 -856 2625 -561 
Q 2906 -266 2906 331 
L 2906 616 
Q 2728 306 2450 153 
Q 2172 0 1784 0 
Q 1141 0 747 490 
Q 353 981 353 1791 
Q 353 2603 747 3093 
Q 1141 3584 1784 3584 
Q 2172 3584 2450 3431 
Q 2728 3278 2906 2969 
L 2906 3500 
L 3481 3500 
L 3481 434 
z
" transform="scale(0.015625)"/>
      </defs>
      <use xlink:href="#DejaVuSans-36"/>
      <use xlink:href="#DejaVuSans-20" transform="translate(63.484375 0)"/>
      <use xlink:href="#DejaVuSans-14" transform="translate(147.28125 0)"/>
      <use xlink:href="#DejaVuSans-f" transform="translate(210.90625 0)"/>
      <use xlink:href="#DejaVuSans-3" transform="translate(242.6875 0)"/>
      <use xlink:href="#DejaVuSans-56" transform="translate(274.46875 0)"/>
      <use xlink:href="#DejaVuSans-46" transform="translate(326.5625 0)"/>
      <use xlink:href="#DejaVuSans-4b" transform="translate(381.546875 0)"/>
      <use xlink:href="#DejaVuSans-48" transform="translate(444.921875 0)"/>
      <use xlink:href="#DejaVuSans-50" transform="translate(506.453125 0)"/>
      <use xlink:href="#DejaVuSans-48" transform="translate(603.859375 0)"/>
      <use xlink:href="#DejaVuSans-20" transform="translate(665.390625 0)"/>
      <use xlink:href="#DejaVuSans-58" transform="translate(749.1875 0)"/>
      <use xlink:href="#DejaVuSans-45" transform="translate(812.5625 0)"/>
      <use xlink:href="#DejaVuSans-42" transform="translate(876.046875 0)"/>
      <use xlink:href="#DejaVuSans-55" transform="translate(926.046875 0)"/>
      <use xlink:href="#DejaVuSans-4a" transform="translate(965.40625 0)"/>
      <use xlink:href="#DejaVuSans-f" transform="translate(1028.890625 0)"/>
      <use xlink:href="#DejaVuSans-3" transform="translate(1060.671875 0)"/>
      <use xlink:href="#DejaVuSans-25" transform="translate(1092.453125 0)"/>
      <use xlink:href="#DejaVuSans-20" transform="translate(1161.0625 0)"/>
      <use xlink:href="#DejaVuSans-14" transform="translate(1244.859375 0)"/>
      <use xlink:href="#DejaVuSans-19" transform="translate(1308.484375 0)"/>
     </g>
    </g>
    <g id="line2d_35">
     <path d="M 72.675781 89.809912 
L 79.675781 89.809912 
L 86.675781 89.809912 
" style="fill: none; stroke: #9467bd; stroke-width: 1.5; stroke-linecap: square"/>
     <g>
      <use xlink:href="#mc8885b9b3d" x="79.675781" y="89.809912" style="fill: #9467bd; stroke: #9467bd"/>
     </g>
    </g>
    <g id="text_19">
     <!-- S=1, scheme=ub_rg, B=256 -->
     <g transform="translate(92.275781 92.259912) scale(0.07 -0.07)">
      <use xlink:href="#DejaVuSans-36"/>
      <use xlink:href="#DejaVuSans-20" transform="translate(63.484375 0)"/>
      <use xlink:href="#DejaVuSans-14" transform="translate(147.28125 0)"/>
      <use xlink:href="#DejaVuSans-f" transform="translate(210.90625 0)"/>
      <use xlink:href="#DejaVuSans-3" transform="translate(242.6875 0)"/>
      <use xlink:href="#DejaVuSans-56" transform="translate(274.46875 0)"/>
      <use xlink:href="#DejaVuSans-46" transform="translate(326.5625 0)"/>
      <use xlink:href="#DejaVuSans-4b" transform="translate(381.546875 0)"/>
      <use xlink:href="#DejaVuSans-48" transform="translate(444.921875 0)"/>
      <use xlink:href="#DejaVuSans-50" transform="translate(506.453125 0)"/>
      <use xlink:href="#DejaVuSans-48" transform="translate(603.859375 0)"/>
      <use xlink:href="#DejaVuSans-20" transform="translate(665.390625 0)"/>
      <use xlink:href="#DejaVuSans-58" transform="translate(749.1875 0)"/>
      <use xlink:href="#DejaVuSans-45" transform="translate(812.5625 0)"/>
      <use xlink:href="#DejaVuSans-42" transform="translate(876.046875 0)"/>
      <use xlink:href="#DejaVuSans-55" transform="translate(926.046875 0)"/>
      <use xlink:href="#DejaVuSans-4a" transform="translate(965.40625 0)"/>
      <use xlink:href="#DejaVuSans-f" transform="translate(1028.890625 0)"/>
      <use xlink:href="#DejaVuSans-3" transform="translate(1060.671875 0)"/>
      <use xlink:href="#DejaVuSans-25" transform="translate(1092.453125 0)"/>
      <use xlink:href="#DejaVuSans-20" transform="translate(1161.0625 0)"/>
      <use xlink:href="#DejaVuSans-15" transform="translate(1244.859375 0)"/>
      <use xlink:href="#DejaVuSans-18" transform="translate(1308.484375 0)"/>
      <use xlink:href="#DejaVuSans-19" transform="translate(1372.109375 0)"/>
     </g>
    </g>
    <g id="line2d_36">
     <path d="M 72.675781 100.310459 
L 79.675781 100.310459 
L 86.675781 100.310459 
" style="fill: none; stroke: #8c564b; stroke-width: 1.5; stroke-linecap: square"/>
     <g>
      <use xlink:href="#m104988fb0a" x="79.675781" y="100.310459" style="fill: #8c564b; stroke: #8c564b"/>
     </g>
    </g>
    <g id="text_20">
     <!-- S=1, scheme=ub_rg, B=64 -->
     <g transform="translate(92.275781 102.760459) scale(0.07 -0.07)">
      <use xlink:href="#DejaVuSans-36"/>
      <use xlink:href="#DejaVuSans-20" transform="translate(63.484375 0)"/>
      <use xlink:href="#DejaVuSans-14" transform="translate(147.28125 0)"/>
      <use xlink:href="#DejaVuSans-f" transform="translate(210.90625 0)"/>
      <use xlink:href="#DejaVuSans-3" transform="translate(242.6875 0)"/>
      <use xlink:href="#DejaVuSans-56" transform="translate(274.46875 0)"/>
      <use xlink:href="#DejaVuSans-46" transform="translate(326.5625 0)"/>
      <use xlink:href="#DejaVuSans-4b" transform="translate(381.546875 0)"/>
      <use xlink:href="#DejaVuSans-48" transform="translate(444.921875 0)"/>
      <use xlink:href="#DejaVuSans-50" transform="translate(506.453125 0)"/>
      <use xlink:href="#DejaVuSans-48" transform="translate(603.859375 0)"/>
      <use xlink:href="#DejaVuSans-20" transform="translate(665.390625 0)"/>
      <use xlink:href="#DejaVuSans-58" transform="translate(749.1875 0)"/>
      <use xlink:href="#DejaVuSans-45" transform="translate(812.5625 0)"/>
      <use xlink:href="#DejaVuSans-42" transform="translate(876.046875 0)"/>
      <use xlink:href="#DejaVuSans-55" transform="translate(926.046875 0)"/>
      <use xlink:href="#DejaVuSans-4a" transform="translate(965.40625 0)"/>
      <use xlink:href="#DejaVuSans-f" transform="translate(1028.890625 0)"/>
      <use xlink:href="#DejaVuSans-3" transform="translate(1060.671875 0)"/>
      <use xlink:href="#DejaVuSans-25" transform="translate(1092.453125 0)"/>
      <use xlink:href="#DejaVuSans-20" transform="translate(1161.0625 0)"/>
      <use xlink:href="#DejaVuSans-19" transform="translate(1244.859375 0)"/>
      <use xlink:href="#DejaVuSans-17" transform="translate(1308.484375 0)"/>
     </g>
    </g>
   </g>
  </g>
  <g id="axes_2">
   <g id="patch_8">
    <path d="M 453.735781 261.429656 
L 776.573438 261.429656 
L 776.573438 38.638818 
L 453.735781 38.638818 
z
" style="fill: #ffffff"/>
   </g>
   <g id="matplotlib.axis_3">
    <g id="xtick_7">
     <g id="line2d_37">
      <path d="M 468.41022 261.429656 
L 468.41022 38.638818 
" clip-path="url(#p9e4c9efb8d)" style="fill: none; stroke: #b0b0b0; stroke-opacity: 0.3; stroke-width: 0.8; stroke-linecap: square"/>
     </g>
     <g id="line2d_38">
      <g>
       <use xlink:href="#m0822cf7f4d" x="468.41022" y="261.429656" style="stroke: #000000; stroke-width: 0.8"/>
      </g>
     </g>
     <g id="text_21">
      <!-- 0.0 -->
      <g transform="translate(460.458658 276.027312) scale(0.1 -0.1)">
       <use xlink:href="#DejaVuSans-13"/>
       <use xlink:href="#DejaVuSans-11" transform="translate(63.625 0)"/>
       <use xlink:href="#DejaVuSans-13" transform="translate(95.40625 0)"/>
      </g>
     </g>
    </g>
    <g id="xtick_8">
     <g id="line2d_39">
      <path d="M 527.107976 261.429656 
L 527.107976 38.638818 
" clip-path="url(#p9e4c9efb8d)" style="fill: none; stroke: #b0b0b0; stroke-opacity: 0.3; stroke-width: 0.8; stroke-linecap: square"/>
     </g>
     <g id="line2d_40">
      <g>
       <use xlink:href="#m0822cf7f4d" x="527.107976" y="261.429656" style="stroke: #000000; stroke-width: 0.8"/>
      </g>
     </g>
     <g id="text_22">
      <!-- 0.1 -->
      <g transform="translate(519.156413 276.027312) scale(0.1 -0.1)">
       <use xlink:href="#DejaVuSans-13"/>
       <use xlink:href="#DejaVuSans-11" transform="translate(63.625 0)"/>
       <use xlink:href="#DejaVuSans-14" transform="translate(95.40625 0)"/>
      </g>
     </g>
    </g>
    <g id="xtick_9">
     <g id="line2d_41">
      <path d="M 585.805732 261.429656 
L 585.805732 38.638818 
" clip-path="url(#p9e4c9efb8d)" style="fill: none; stroke: #b0b0b0; stroke-opacity: 0.3; stroke-width: 0.8; stroke-linecap: square"/>
     </g>
     <g id="line2d_42">
      <g>
       <use xlink:href="#m0822cf7f4d" x="585.805732" y="261.429656" style="stroke: #000000; stroke-width: 0.8"/>
      </g>
     </g>
     <g id="text_23">
      <!-- 0.2 -->
      <g transform="translate(577.854169 276.027312) scale(0.1 -0.1)">
       <use xlink:href="#DejaVuSans-13"/>
       <use xlink:href="#DejaVuSans-11" transform="translate(63.625 0)"/>
       <use xlink:href="#DejaVuSans-15" transform="translate(95.40625 0)"/>
      </g>
     </g>
    </g>
    <g id="xtick_10">
     <g id="line2d_43">
      <path d="M 644.503487 261.429656 
L 644.503487 38.638818 
" clip-path="url(#p9e4c9efb8d)" style="fill: none; stroke: #b0b0b0; stroke-opacity: 0.3; stroke-width: 0.8; stroke-linecap: square"/>
     </g>
     <g id="line2d_44">
      <g>
       <use xlink:href="#m0822cf7f4d" x="644.503487" y="261.429656" style="stroke: #000000; stroke-width: 0.8"/>
      </g>
     </g>
     <g id="text_24">
      <!-- 0.3 -->
      <g transform="translate(636.551925 276.027312) scale(0.1 -0.1)">
       <use xlink:href="#DejaVuSans-13"/>
       <use xlink:href="#DejaVuSans-11" transform="translate(63.625 0)"/>
       <use xlink:href="#DejaVuSans-16" transform="translate(95.40625 0)"/>
      </g>
     </g>
    </g>
    <g id="xtick_11">
     <g id="line2d_45">
      <path d="M 703.201243 261.429656 
L 703.201243 38.638818 
" clip-path="url(#p9e4c9efb8d)" style="fill: none; stroke: #b0b0b0; stroke-opacity: 0.3; stroke-width: 0.8; stroke-linecap: square"/>
     </g>
     <g id="line2d_46">
      <g>
       <use xlink:href="#m0822cf7f4d" x="703.201243" y="261.429656" style="stroke: #000000; stroke-width: 0.8"/>
      </g>
     </g>
     <g id="text_25">
      <!-- 0.4 -->
      <g transform="translate(695.24968 276.027312) scale(0.1 -0.1)">
       <use xlink:href="#DejaVuSans-13"/>
       <use xlink:href="#DejaVuSans-11" transform="translate(63.625 0)"/>
       <use xlink:href="#DejaVuSans-17" transform="translate(95.40625 0)"/>
      </g>
     </g>
    </g>
    <g id="xtick_12">
     <g id="line2d_47">
      <path d="M 761.898999 261.429656 
L 761.898999 38.638818 
" clip-path="url(#p9e4c9efb8d)" style="fill: none; stroke: #b0b0b0; stroke-opacity: 0.3; stroke-width: 0.8; stroke-linecap: square"/>
     </g>
     <g id="line2d_48">
      <g>
       <use xlink:href="#m0822cf7f4d" x="761.898999" y="261.429656" style="stroke: #000000; stroke-width: 0.8"/>
      </g>
     </g>
     <g id="text_26">
      <!-- 0.5 -->
      <g transform="translate(753.947436 276.027312) scale(0.1 -0.1)">
       <use xlink:href="#DejaVuSans-13"/>
       <use xlink:href="#DejaVuSans-11" transform="translate(63.625 0)"/>
       <use xlink:href="#DejaVuSans-18" transform="translate(95.40625 0)"/>
      </g>
     </g>
    </g>
    <g id="text_27">
     <!-- Zipf S -->
     <g transform="translate(600.642891 290.028094) scale(0.1 -0.1)">
      <use xlink:href="#DejaVuSans-3d"/>
      <use xlink:href="#DejaVuSans-4c" transform="translate(68.5 0)"/>
      <use xlink:href="#DejaVuSans-53" transform="translate(96.28125 0)"/>
      <use xlink:href="#DejaVuSans-49" transform="translate(159.765625 0)"/>
      <use xlink:href="#DejaVuSans-3" transform="translate(194.96875 0)"/>
      <use xlink:href="#DejaVuSans-36" transform="translate(226.75 0)"/>
     </g>
    </g>
   </g>
   <g id="matplotlib.axis_4">
    <g id="ytick_7">
     <g id="line2d_49">
      <path d="M 453.735781 224.358473 
L 776.573438 224.358473 
" clip-path="url(#p9e4c9efb8d)" style="fill: none; stroke: #b0b0b0; stroke-opacity: 0.3; stroke-width: 0.8; stroke-linecap: square"/>
     </g>
     <g id="line2d_50">
      <g>
       <use xlink:href="#m6e4ebf8546" x="453.735781" y="224.358473" style="stroke: #000000; stroke-width: 0.8"/>
      </g>
     </g>
     <g id="text_28">
      <!-- 2000 -->
      <g transform="translate(421.285781 228.157301) scale(0.1 -0.1)">
       <use xlink:href="#DejaVuSans-15"/>
       <use xlink:href="#DejaVuSans-13" transform="translate(63.625 0)"/>
       <use xlink:href="#DejaVuSans-13" transform="translate(127.25 0)"/>
       <use xlink:href="#DejaVuSans-13" transform="translate(190.875 0)"/>
      </g>
     </g>
    </g>
    <g id="ytick_8">
     <g id="line2d_51">
      <path d="M 453.735781 183.735557 
L 776.573438 183.735557 
" clip-path="url(#p9e4c9efb8d)" style="fill: none; stroke: #b0b0b0; stroke-opacity: 0.3; stroke-width: 0.8; stroke-linecap: square"/>
     </g>
     <g id="line2d_52">
      <g>
       <use xlink:href="#m6e4ebf8546" x="453.735781" y="183.735557" style="stroke: #000000; stroke-width: 0.8"/>
      </g>
     </g>
     <g id="text_29">
      <!-- 4000 -->
      <g transform="translate(421.285781 187.534385) scale(0.1 -0.1)">
       <use xlink:href="#DejaVuSans-17"/>
       <use xlink:href="#DejaVuSans-13" transform="translate(63.625 0)"/>
       <use xlink:href="#DejaVuSans-13" transform="translate(127.25 0)"/>
       <use xlink:href="#DejaVuSans-13" transform="translate(190.875 0)"/>
      </g>
     </g>
    </g>
    <g id="ytick_9">
     <g id="line2d_53">
      <path d="M 453.735781 143.112641 
L 776.573438 143.112641 
" clip-path="url(#p9e4c9efb8d)" style="fill: none; stroke: #b0b0b0; stroke-opacity: 0.3; stroke-width: 0.8; stroke-linecap: square"/>
     </g>
     <g id="line2d_54">
      <g>
       <use xlink:href="#m6e4ebf8546" x="453.735781" y="143.112641" style="stroke: #000000; stroke-width: 0.8"/>
      </g>
     </g>
     <g id="text_30">
      <!-- 6000 -->
      <g transform="translate(421.285781 146.911469) scale(0.1 -0.1)">
       <use xlink:href="#DejaVuSans-19"/>
       <use xlink:href="#DejaVuSans-13" transform="translate(63.625 0)"/>
       <use xlink:href="#DejaVuSans-13" transform="translate(127.25 0)"/>
       <use xlink:href="#DejaVuSans-13" transform="translate(190.875 0)"/>
      </g>
     </g>
    </g>
    <g id="ytick_10">
     <g id="line2d_55">
      <path d="M 453.735781 102.489724 
L 776.573438 102.489724 
" clip-path="url(#p9e4c9efb8d)" style="fill: none; stroke: #b0b0b0; stroke-opacity: 0.3; stroke-width: 0.8; stroke-linecap: square"/>
     </g>
     <g id="line2d_56">
      <g>
       <use xlink:href="#m6e4ebf8546" x="453.735781" y="102.489724" style="stroke: #000000; stroke-width: 0.8"/>
      </g>
     </g>
     <g id="text_31">
      <!-- 8000 -->
      <g transform="translate(421.285781 106.288553) scale(0.1 -0.1)">
       <defs>
        <path id="DejaVuSans-1b" d="M 2034 2216 
Q 1584 2216 1326 1975 
Q 1069 1734 1069 1313 
Q 1069 891 1326 650 
Q 1584 409 2034 409 
Q 2484 409 2743 651 
Q 3003 894 3003 1313 
Q 3003 1734 2745 1975 
Q 2488 2216 2034 2216 
z
M 1403 2484 
Q 997 2584 770 2862 
Q 544 3141 544 3541 
Q 544 4100 942 4425 
Q 1341 4750 2034 4750 
Q 2731 4750 3128 4425 
Q 3525 4100 3525 3541 
Q 3525 3141 3298 2862 
Q 3072 2584 2669 2484 
Q 3125 2378 3379 2068 
Q 3634 1759 3634 1313 
Q 3634 634 3220 271 
Q 2806 -91 2034 -91 
Q 1263 -91 848 271 
Q 434 634 434 1313 
Q 434 1759 690 2068 
Q 947 2378 1403 2484 
z
M 1172 3481 
Q 1172 3119 1398 2916 
Q 1625 2713 2034 2713 
Q 2441 2713 2670 2916 
Q 2900 3119 2900 3481 
Q 2900 3844 2670 4047 
Q 2441 4250 2034 4250 
Q 1625 4250 1398 4047 
Q 1172 3844 1172 3481 
z
" transform="scale(0.015625)"/>
       </defs>
       <use xlink:href="#DejaVuSans-1b"/>
       <use xlink:href="#DejaVuSans-13" transform="translate(63.625 0)"/>
       <use xlink:href="#DejaVuSans-13" transform="translate(127.25 0)"/>
       <use xlink:href="#DejaVuSans-13" transform="translate(190.875 0)"/>
      </g>
     </g>
    </g>
    <g id="ytick_11">
     <g id="line2d_57">
      <path d="M 453.735781 61.866808 
L 776.573438 61.866808 
" clip-path="url(#p9e4c9efb8d)" style="fill: none; stroke: #b0b0b0; stroke-opacity: 0.3; stroke-width: 0.8; stroke-linecap: square"/>
     </g>
     <g id="line2d_58">
      <g>
       <use xlink:href="#m6e4ebf8546" x="453.735781" y="61.866808" style="stroke: #000000; stroke-width: 0.8"/>
      </g>
     </g>
     <g id="text_32">
      <!-- 10000 -->
      <g transform="translate(414.923281 65.665636) scale(0.1 -0.1)">
       <use xlink:href="#DejaVuSans-14"/>
       <use xlink:href="#DejaVuSans-13" transform="translate(63.625 0)"/>
       <use xlink:href="#DejaVuSans-13" transform="translate(127.25 0)"/>
       <use xlink:href="#DejaVuSans-13" transform="translate(190.875 0)"/>
       <use xlink:href="#DejaVuSans-13" transform="translate(254.5 0)"/>
      </g>
     </g>
    </g>
    <g id="text_33">
     <!-- Per-device throughput (token/s) -->
     <g transform="translate(408.520938 229.211581) rotate(-90) scale(0.1 -0.1)">
      <defs>
       <path id="DejaVuSans-33" d="M 1259 4147 
L 1259 2394 
L 2053 2394 
Q 2494 2394 2734 2622 
Q 2975 2850 2975 3272 
Q 2975 3691 2734 3919 
Q 2494 4147 2053 4147 
L 1259 4147 
z
M 628 4666 
L 2053 4666 
Q 2838 4666 3239 4311 
Q 3641 3956 3641 3272 
Q 3641 2581 3239 2228 
Q 2838 1875 2053 1875 
L 1259 1875 
L 1259 0 
L 628 0 
L 628 4666 
z
" transform="scale(0.015625)"/>
       <path id="DejaVuSans-10" d="M 313 2009 
L 1997 2009 
L 1997 1497 
L 313 1497 
L 313 2009 
z
" transform="scale(0.015625)"/>
       <path id="DejaVuSans-47" d="M 2906 2969 
L 2906 4863 
L 3481 4863 
L 3481 0 
L 2906 0 
L 2906 525 
Q 2725 213 2448 61 
Q 2172 -91 1784 -91 
Q 1150 -91 751 415 
Q 353 922 353 1747 
Q 353 2572 751 3078 
Q 1150 3584 1784 3584 
Q 2172 3584 2448 3432 
Q 2725 3281 2906 2969 
z
M 947 1747 
Q 947 1113 1208 752 
Q 1469 391 1925 391 
Q 2381 391 2643 752 
Q 2906 1113 2906 1747 
Q 2906 2381 2643 2742 
Q 2381 3103 1925 3103 
Q 1469 3103 1208 2742 
Q 947 2381 947 1747 
z
" transform="scale(0.015625)"/>
       <path id="DejaVuSans-59" d="M 191 3500 
L 800 3500 
L 1894 563 
L 2988 3500 
L 3597 3500 
L 2284 0 
L 1503 0 
L 191 3500 
z
" transform="scale(0.015625)"/>
       <path id="DejaVuSans-52" d="M 1959 3097 
Q 1497 3097 1228 2736 
Q 959 2375 959 1747 
Q 959 1119 1226 758 
Q 1494 397 1959 397 
Q 2419 397 2687 759 
Q 2956 1122 2956 1747 
Q 2956 2369 2687 2733 
Q 2419 3097 1959 3097 
z
M 1959 3584 
Q 2709 3584 3137 3096 
Q 3566 2609 3566 1747 
Q 3566 888 3137 398 
Q 2709 -91 1959 -91 
Q 1206 -91 779 398 
Q 353 888 353 1747 
Q 353 2609 779 3096 
Q 1206 3584 1959 3584 
z
" transform="scale(0.015625)"/>
       <path id="DejaVuSans-51" d="M 3513 2113 
L 3513 0 
L 2938 0 
L 2938 2094 
Q 2938 2591 2744 2837 
Q 2550 3084 2163 3084 
Q 1697 3084 1428 2787 
Q 1159 2491 1159 1978 
L 1159 0 
L 581 0 
L 581 3500 
L 1159 3500 
L 1159 2956 
Q 1366 3272 1645 3428 
Q 1925 3584 2291 3584 
Q 2894 3584 3203 3211 
Q 3513 2838 3513 2113 
z
" transform="scale(0.015625)"/>
       <path id="DejaVuSans-12" d="M 1625 4666 
L 2156 4666 
L 531 -594 
L 0 -594 
L 1625 4666 
z
" transform="scale(0.015625)"/>
      </defs>
      <use xlink:href="#DejaVuSans-33"/>
      <use xlink:href="#DejaVuSans-48" transform="translate(56.734375 0)"/>
      <use xlink:href="#DejaVuSans-55" transform="translate(118.265625 0)"/>
      <use xlink:href="#DejaVuSans-10" transform="translate(152.984375 0)"/>
      <use xlink:href="#DejaVuSans-47" transform="translate(189.0625 0)"/>
      <use xlink:href="#DejaVuSans-48" transform="translate(252.546875 0)"/>
      <use xlink:href="#DejaVuSans-59" transform="translate(314.078125 0)"/>
      <use xlink:href="#DejaVuSans-4c" transform="translate(373.265625 0)"/>
      <use xlink:href="#DejaVuSans-46" transform="translate(401.046875 0)"/>
      <use xlink:href="#DejaVuSans-48" transform="translate(456.03125 0)"/>
      <use xlink:href="#DejaVuSans-3" transform="translate(517.5625 0)"/>
      <use xlink:href="#DejaVuSans-57" transform="translate(549.34375 0)"/>
      <use xlink:href="#DejaVuSans-4b" transform="translate(588.546875 0)"/>
      <use xlink:href="#DejaVuSans-55" transform="translate(651.921875 0)"/>
      <use xlink:href="#DejaVuSans-52" transform="translate(690.828125 0)"/>
      <use xlink:href="#DejaVuSans-58" transform="translate(752.015625 0)"/>
      <use xlink:href="#DejaVuSans-4a" transform="translate(815.390625 0)"/>
      <use xlink:href="#DejaVuSans-4b" transform="translate(878.875 0)"/>
      <use xlink:href="#DejaVuSans-53" transform="translate(942.25 0)"/>
      <use xlink:href="#DejaVuSans-58" transform="translate(1005.734375 0)"/>
      <use xlink:href="#DejaVuSans-57" transform="translate(1069.109375 0)"/>
      <use xlink:href="#DejaVuSans-3" transform="translate(1108.3125 0)"/>
      <use xlink:href="#DejaVuSans-b" transform="translate(1140.09375 0)"/>
      <use xlink:href="#DejaVuSans-57" transform="translate(1179.109375 0)"/>
      <use xlink:href="#DejaVuSans-52" transform="translate(1218.3125 0)"/>
      <use xlink:href="#DejaVuSans-4e" transform="translate(1279.5 0)"/>
      <use xlink:href="#DejaVuSans-48" transform="translate(1333.84375 0)"/>
      <use xlink:href="#DejaVuSans-51" transform="translate(1395.375 0)"/>
      <use xlink:href="#DejaVuSans-12" transform="translate(1458.75 0)"/>
      <use xlink:href="#DejaVuSans-56" transform="translate(1492.4375 0)"/>
      <use xlink:href="#DejaVuSans-c" transform="translate(1544.53125 0)"/>
     </g>
    </g>
   </g>
   <g id="line2d_59">
    <path d="M 761.898999 251.3028 
" clip-path="url(#p9e4c9efb8d)" style="fill: none; stroke: #1f77b4; stroke-width: 1.5; stroke-linecap: square"/>
    <g clip-path="url(#p9e4c9efb8d)">
     <use xlink:href="#m89420dfed3" x="761.898999" y="251.3028" style="fill: #1f77b4; stroke: #1f77b4"/>
    </g>
   </g>
   <g id="line2d_60">
    <path d="M 468.41022 172.775344 
L 761.898999 251.066312 
" clip-path="url(#p9e4c9efb8d)" style="fill: none; stroke: #ff7f0e; stroke-width: 1.5; stroke-linecap: square"/>
    <g clip-path="url(#p9e4c9efb8d)">
     <use xlink:href="#mdb21708877" x="468.41022" y="172.775344" style="fill: #ff7f0e; stroke: #ff7f0e"/>
     <use xlink:href="#mdb21708877" x="761.898999" y="251.066312" style="fill: #ff7f0e; stroke: #ff7f0e"/>
    </g>
   </g>
   <g id="line2d_61">
    <path d="M 761.898999 246.790643 
" clip-path="url(#p9e4c9efb8d)" style="fill: none; stroke: #2ca02c; stroke-width: 1.5; stroke-linecap: square"/>
    <g clip-path="url(#p9e4c9efb8d)">
     <use xlink:href="#mf2e8c27524" x="761.898999" y="246.790643" style="fill: #2ca02c; stroke: #2ca02c"/>
    </g>
   </g>
   <g id="line2d_62">
    <path d="M 761.898999 250.112462 
" clip-path="url(#p9e4c9efb8d)" style="fill: none; stroke: #d62728; stroke-width: 1.5; stroke-linecap: square"/>
    <g clip-path="url(#p9e4c9efb8d)">
     <use xlink:href="#m2d3a1822a8" x="761.898999" y="250.112462" style="fill: #d62728; stroke: #d62728"/>
    </g>
   </g>
   <g id="line2d_63">
    <path d="M 468.41022 48.765674 
L 761.898999 223.283864 
" clip-path="url(#p9e4c9efb8d)" style="fill: none; stroke: #9467bd; stroke-width: 1.5; stroke-linecap: square"/>
    <g clip-path="url(#p9e4c9efb8d)">
     <use xlink:href="#mc8885b9b3d" x="468.41022" y="48.765674" style="fill: #9467bd; stroke: #9467bd"/>
     <use xlink:href="#mc8885b9b3d" x="761.898999" y="223.283864" style="fill: #9467bd; stroke: #9467bd"/>
    </g>
   </g>
   <g id="line2d_64">
    <path d="M 761.898999 244.481725 
" clip-path="url(#p9e4c9efb8d)" style="fill: none; stroke: #8c564b; stroke-width: 1.5; stroke-linecap: square"/>
    <g clip-path="url(#p9e4c9efb8d)">
     <use xlink:href="#m104988fb0a" x="761.898999" y="244.481725" style="fill: #8c564b; stroke: #8c564b"/>
    </g>
   </g>
   <g id="patch_9">
    <path d="M 453.735781 261.429656 
L 453.735781 38.638818 
" style="fill: none; stroke: #000000; stroke-width: 0.8; stroke-linejoin: miter; stroke-linecap: square"/>
   </g>
   <g id="patch_10">
    <path d="M 776.573438 261.429656 
L 776.573438 38.638818 
" style="fill: none; stroke: #000000; stroke-width: 0.8; stroke-linejoin: miter; stroke-linecap: square"/>
   </g>
   <g id="patch_11">
    <path d="M 453.735781 261.429656 
L 776.573438 261.429656 
" style="fill: none; stroke: #000000; stroke-width: 0.8; stroke-linejoin: miter; stroke-linecap: square"/>
   </g>
   <g id="patch_12">
    <path d="M 453.735781 38.638818 
L 776.573438 38.638818 
" style="fill: none; stroke: #000000; stroke-width: 0.8; stroke-linejoin: miter; stroke-linecap: square"/>
   </g>
   <g id="legend_2">
    <g id="patch_13">
     <path d="M 622.012344 107.242099 
L 771.673437 107.242099 
Q 773.073437 107.242099 773.073437 105.842099 
L 773.073437 43.538818 
Q 773.073437 42.138818 771.673437 42.138818 
L 622.012344 42.138818 
Q 620.612344 42.138818 620.612344 43.538818 
L 620.612344 105.842099 
Q 620.612344 107.242099 622.012344 107.242099 
z
" style="fill: #ffffff; opacity: 0.8; stroke: #cccccc; stroke-linejoin: miter"/>
    </g>
    <g id="line2d_65">
     <path d="M 623.412344 47.807724 
L 630.412344 47.807724 
L 637.412344 47.807724 
" style="fill: none; stroke: #1f77b4; stroke-width: 1.5; stroke-linecap: square"/>
     <g>
      <use xlink:href="#m89420dfed3" x="630.412344" y="47.807724" style="fill: #1f77b4; stroke: #1f77b4"/>
     </g>
    </g>
    <g id="text_34">
     <!-- S=1, scheme=packet_spray, B=16 -->
     <g transform="translate(643.012344 50.257724) scale(0.07 -0.07)">
      <use xlink:href="#DejaVuSans-36"/>
      <use xlink:href="#DejaVuSans-20" transform="translate(63.484375 0)"/>
      <use xlink:href="#DejaVuSans-14" transform="translate(147.28125 0)"/>
      <use xlink:href="#DejaVuSans-f" transform="translate(210.90625 0)"/>
      <use xlink:href="#DejaVuSans-3" transform="translate(242.6875 0)"/>
      <use xlink:href="#DejaVuSans-56" transform="translate(274.46875 0)"/>
      <use xlink:href="#DejaVuSans-46" transform="translate(326.5625 0)"/>
      <use xlink:href="#DejaVuSans-4b" transform="translate(381.546875 0)"/>
      <use xlink:href="#DejaVuSans-48" transform="translate(444.921875 0)"/>
      <use xlink:href="#DejaVuSans-50" transform="translate(506.453125 0)"/>
      <use xlink:href="#DejaVuSans-48" transform="translate(603.859375 0)"/>
      <use xlink:href="#DejaVuSans-20" transform="translate(665.390625 0)"/>
      <use xlink:href="#DejaVuSans-53" transform="translate(749.1875 0)"/>
      <use xlink:href="#DejaVuSans-44" transform="translate(812.671875 0)"/>
      <use xlink:href="#DejaVuSans-46" transform="translate(873.953125 0)"/>
      <use xlink:href="#DejaVuSans-4e" transform="translate(928.9375 0)"/>
      <use xlink:href="#DejaVuSans-48" transform="translate(983.28125 0)"/>
      <use xlink:href="#DejaVuSans-57" transform="translate(1044.8125 0)"/>
      <use xlink:href="#DejaVuSans-42" transform="translate(1084.015625 0)"/>
      <use xlink:href="#DejaVuSans-56" transform="translate(1134.015625 0)"/>
      <use xlink:href="#DejaVuSans-53" transform="translate(1186.109375 0)"/>
      <use xlink:href="#DejaVuSans-55" transform="translate(1249.59375 0)"/>
      <use xlink:href="#DejaVuSans-44" transform="translate(1290.703125 0)"/>
      <use xlink:href="#DejaVuSans-5c" transform="translate(1351.984375 0)"/>
      <use xlink:href="#DejaVuSans-f" transform="translate(1411.171875 0)"/>
      <use xlink:href="#DejaVuSans-3" transform="translate(1442.953125 0)"/>
      <use xlink:href="#DejaVuSans-25" transform="translate(1474.734375 0)"/>
      <use xlink:href="#DejaVuSans-20" transform="translate(1543.34375 0)"/>
      <use xlink:href="#DejaVuSans-14" transform="translate(1627.140625 0)"/>
      <use xlink:href="#DejaVuSans-19" transform="translate(1690.765625 0)"/>
     </g>
    </g>
    <g id="line2d_66">
     <path d="M 623.412344 58.308271 
L 630.412344 58.308271 
L 637.412344 58.308271 
" style="fill: none; stroke: #ff7f0e; stroke-width: 1.5; stroke-linecap: square"/>
     <g>
      <use xlink:href="#mdb21708877" x="630.412344" y="58.308271" style="fill: #ff7f0e; stroke: #ff7f0e"/>
     </g>
    </g>
    <g id="text_35">
     <!-- S=1, scheme=packet_spray, B=256 -->
     <g transform="translate(643.012344 60.758271) scale(0.07 -0.07)">
      <use xlink:href="#DejaVuSans-36"/>
      <use xlink:href="#DejaVuSans-20" transform="translate(63.484375 0)"/>
      <use xlink:href="#DejaVuSans-14" transform="translate(147.28125 0)"/>
      <use xlink:href="#DejaVuSans-f" transform="translate(210.90625 0)"/>
      <use xlink:href="#DejaVuSans-3" transform="translate(242.6875 0)"/>
      <use xlink:href="#DejaVuSans-56" transform="translate(274.46875 0)"/>
      <use xlink:href="#DejaVuSans-46" transform="translate(326.5625 0)"/>
      <use xlink:href="#DejaVuSans-4b" transform="translate(381.546875 0)"/>
      <use xlink:href="#DejaVuSans-48" transform="translate(444.921875 0)"/>
      <use xlink:href="#DejaVuSans-50" transform="translate(506.453125 0)"/>
      <use xlink:href="#DejaVuSans-48" transform="translate(603.859375 0)"/>
      <use xlink:href="#DejaVuSans-20" transform="translate(665.390625 0)"/>
      <use xlink:href="#DejaVuSans-53" transform="translate(749.1875 0)"/>
      <use xlink:href="#DejaVuSans-44" transform="translate(812.671875 0)"/>
      <use xlink:href="#DejaVuSans-46" transform="translate(873.953125 0)"/>
      <use xlink:href="#DejaVuSans-4e" transform="translate(928.9375 0)"/>
      <use xlink:href="#DejaVuSans-48" transform="translate(983.28125 0)"/>
      <use xlink:href="#DejaVuSans-57" transform="translate(1044.8125 0)"/>
      <use xlink:href="#DejaVuSans-42" transform="translate(1084.015625 0)"/>
      <use xlink:href="#DejaVuSans-56" transform="translate(1134.015625 0)"/>
      <use xlink:href="#DejaVuSans-53" transform="translate(1186.109375 0)"/>
      <use xlink:href="#DejaVuSans-55" transform="translate(1249.59375 0)"/>
      <use xlink:href="#DejaVuSans-44" transform="translate(1290.703125 0)"/>
      <use xlink:href="#DejaVuSans-5c" transform="translate(1351.984375 0)"/>
      <use xlink:href="#DejaVuSans-f" transform="translate(1411.171875 0)"/>
      <use xlink:href="#DejaVuSans-3" transform="translate(1442.953125 0)"/>
      <use xlink:href="#DejaVuSans-25" transform="translate(1474.734375 0)"/>
      <use xlink:href="#DejaVuSans-20" transform="translate(1543.34375 0)"/>
      <use xlink:href="#DejaVuSans-15" transform="translate(1627.140625 0)"/>
      <use xlink:href="#DejaVuSans-18" transform="translate(1690.765625 0)"/>
      <use xlink:href="#DejaVuSans-19" transform="translate(1754.390625 0)"/>
     </g>
    </g>
    <g id="line2d_67">
     <path d="M 623.412344 68.808818 
L 630.412344 68.808818 
L 637.412344 68.808818 
" style="fill: none; stroke: #2ca02c; stroke-width: 1.5; stroke-linecap: square"/>
     <g>
      <use xlink:href="#mf2e8c27524" x="630.412344" y="68.808818" style="fill: #2ca02c; stroke: #2ca02c"/>
     </g>
    </g>
    <g id="text_36">
     <!-- S=1, scheme=packet_spray, B=64 -->
     <g transform="translate(643.012344 71.258818) scale(0.07 -0.07)">
      <use xlink:href="#DejaVuSans-36"/>
      <use xlink:href="#DejaVuSans-20" transform="translate(63.484375 0)"/>
      <use xlink:href="#DejaVuSans-14" transform="translate(147.28125 0)"/>
      <use xlink:href="#DejaVuSans-f" transform="translate(210.90625 0)"/>
      <use xlink:href="#DejaVuSans-3" transform="translate(242.6875 0)"/>
      <use xlink:href="#DejaVuSans-56" transform="translate(274.46875 0)"/>
      <use xlink:href="#DejaVuSans-46" transform="translate(326.5625 0)"/>
      <use xlink:href="#DejaVuSans-4b" transform="translate(381.546875 0)"/>
      <use xlink:href="#DejaVuSans-48" transform="translate(444.921875 0)"/>
      <use xlink:href="#DejaVuSans-50" transform="translate(506.453125 0)"/>
      <use xlink:href="#DejaVuSans-48" transform="translate(603.859375 0)"/>
      <use xlink:href="#DejaVuSans-20" transform="translate(665.390625 0)"/>
      <use xlink:href="#DejaVuSans-53" transform="translate(749.1875 0)"/>
      <use xlink:href="#DejaVuSans-44" transform="translate(812.671875 0)"/>
      <use xlink:href="#DejaVuSans-46" transform="translate(873.953125 0)"/>
      <use xlink:href="#DejaVuSans-4e" transform="translate(928.9375 0)"/>
      <use xlink:href="#DejaVuSans-48" transform="translate(983.28125 0)"/>
      <use xlink:href="#DejaVuSans-57" transform="translate(1044.8125 0)"/>
      <use xlink:href="#DejaVuSans-42" transform="translate(1084.015625 0)"/>
      <use xlink:href="#DejaVuSans-56" transform="translate(1134.015625 0)"/>
      <use xlink:href="#DejaVuSans-53" transform="translate(1186.109375 0)"/>
      <use xlink:href="#DejaVuSans-55" transform="translate(1249.59375 0)"/>
      <use xlink:href="#DejaVuSans-44" transform="translate(1290.703125 0)"/>
      <use xlink:href="#DejaVuSans-5c" transform="translate(1351.984375 0)"/>
      <use xlink:href="#DejaVuSans-f" transform="translate(1411.171875 0)"/>
      <use xlink:href="#DejaVuSans-3" transform="translate(1442.953125 0)"/>
      <use xlink:href="#DejaVuSans-25" transform="translate(1474.734375 0)"/>
      <use xlink:href="#DejaVuSans-20" transform="translate(1543.34375 0)"/>
      <use xlink:href="#DejaVuSans-19" transform="translate(1627.140625 0)"/>
      <use xlink:href="#DejaVuSans-17" transform="translate(1690.765625 0)"/>
     </g>
    </g>
    <g id="line2d_68">
     <path d="M 623.412344 79.309365 
L 630.412344 79.309365 
L 637.412344 79.309365 
" style="fill: none; stroke: #d62728; stroke-width: 1.5; stroke-linecap: square"/>
     <g>
      <use xlink:href="#m2d3a1822a8" x="630.412344" y="79.309365" style="fill: #d62728; stroke: #d62728"/>
     </g>
    </g>
    <g id="text_37">
     <!-- S=1, scheme=ub_rg, B=16 -->
     <g transform="translate(643.012344 81.759365) scale(0.07 -0.07)">
      <use xlink:href="#DejaVuSans-36"/>
      <use xlink:href="#DejaVuSans-20" transform="translate(63.484375 0)"/>
      <use xlink:href="#DejaVuSans-14" transform="translate(147.28125 0)"/>
      <use xlink:href="#DejaVuSans-f" transform="translate(210.90625 0)"/>
      <use xlink:href="#DejaVuSans-3" transform="translate(242.6875 0)"/>
      <use xlink:href="#DejaVuSans-56" transform="translate(274.46875 0)"/>
      <use xlink:href="#DejaVuSans-46" transform="translate(326.5625 0)"/>
      <use xlink:href="#DejaVuSans-4b" transform="translate(381.546875 0)"/>
      <use xlink:href="#DejaVuSans-48" transform="translate(444.921875 0)"/>
      <use xlink:href="#DejaVuSans-50" transform="translate(506.453125 0)"/>
      <use xlink:href="#DejaVuSans-48" transform="translate(603.859375 0)"/>
      <use xlink:href="#DejaVuSans-20" transform="translate(665.390625 0)"/>
      <use xlink:href="#DejaVuSans-58" transform="translate(749.1875 0)"/>
      <use xlink:href="#DejaVuSans-45" transform="translate(812.5625 0)"/>
      <use xlink:href="#DejaVuSans-42" transform="translate(876.046875 0)"/>
      <use xlink:href="#DejaVuSans-55" transform="translate(926.046875 0)"/>
      <use xlink:href="#DejaVuSans-4a" transform="translate(965.40625 0)"/>
      <use xlink:href="#DejaVuSans-f" transform="translate(1028.890625 0)"/>
      <use xlink:href="#DejaVuSans-3" transform="translate(1060.671875 0)"/>
      <use xlink:href="#DejaVuSans-25" transform="translate(1092.453125 0)"/>
      <use xlink:href="#DejaVuSans-20" transform="translate(1161.0625 0)"/>
      <use xlink:href="#DejaVuSans-14" transform="translate(1244.859375 0)"/>
      <use xlink:href="#DejaVuSans-19" transform="translate(1308.484375 0)"/>
     </g>
    </g>
    <g id="line2d_69">
     <path d="M 623.412344 89.809912 
L 630.412344 89.809912 
L 637.412344 89.809912 
" style="fill: none; stroke: #9467bd; stroke-width: 1.5; stroke-linecap: square"/>
     <g>
      <use xlink:href="#mc8885b9b3d" x="630.412344" y="89.809912" style="fill: #9467bd; stroke: #9467bd"/>
     </g>
    </g>
    <g id="text_38">
     <!-- S=1, scheme=ub_rg, B=256 -->
     <g transform="translate(643.012344 92.259912) scale(0.07 -0.07)">
      <use xlink:href="#DejaVuSans-36"/>
      <use xlink:href="#DejaVuSans-20" transform="translate(63.484375 0)"/>
      <use xlink:href="#DejaVuSans-14" transform="translate(147.28125 0)"/>
      <use xlink:href="#DejaVuSans-f" transform="translate(210.90625 0)"/>
      <use xlink:href="#DejaVuSans-3" transform="translate(242.6875 0)"/>
      <use xlink:href="#DejaVuSans-56" transform="translate(274.46875 0)"/>
      <use xlink:href="#DejaVuSans-46" transform="translate(326.5625 0)"/>
      <use xlink:href="#DejaVuSans-4b" transform="translate(381.546875 0)"/>
      <use xlink:href="#DejaVuSans-48" transform="translate(444.921875 0)"/>
      <use xlink:href="#DejaVuSans-50" transform="translate(506.453125 0)"/>
      <use xlink:href="#DejaVuSans-48" transform="translate(603.859375 0)"/>
      <use xlink:href="#DejaVuSans-20" transform="translate(665.390625 0)"/>
      <use xlink:href="#DejaVuSans-58" transform="translate(749.1875 0)"/>
      <use xlink:href="#DejaVuSans-45" transform="translate(812.5625 0)"/>
      <use xlink:href="#DejaVuSans-42" transform="translate(876.046875 0)"/>
      <use xlink:href="#DejaVuSans-55" transform="translate(926.046875 0)"/>
      <use xlink:href="#DejaVuSans-4a" transform="translate(965.40625 0)"/>
      <use xlink:href="#DejaVuSans-f" transform="translate(1028.890625 0)"/>
      <use xlink:href="#DejaVuSans-3" transform="translate(1060.671875 0)"/>
      <use xlink:href="#DejaVuSans-25" transform="translate(1092.453125 0)"/>
      <use xlink:href="#DejaVuSans-20" transform="translate(1161.0625 0)"/>
      <use xlink:href="#DejaVuSans-15" transform="translate(1244.859375 0)"/>
      <use xlink:href="#DejaVuSans-18" transform="translate(1308.484375 0)"/>
      <use xlink:href="#DejaVuSans-19" transform="translate(1372.109375 0)"/>
     </g>
    </g>
    <g id="line2d_70">
     <path d="M 623.412344 100.310459 
L 630.412344 100.310459 
L 637.412344 100.310459 
" style="fill: none; stroke: #8c564b; stroke-width: 1.5; stroke-linecap: square"/>
     <g>
      <use xlink:href="#m104988fb0a" x="630.412344" y="100.310459" style="fill: #8c564b; stroke: #8c564b"/>
     </g>
    </g>
    <g id="text_39">
     <!-- S=1, scheme=ub_rg, B=64 -->
     <g transform="translate(643.012344 102.760459) scale(0.07 -0.07)">
      <use xlink:href="#DejaVuSans-36"/>
      <use xlink:href="#DejaVuSans-20" transform="translate(63.484375 0)"/>
      <use xlink:href="#DejaVuSans-14" transform="translate(147.28125 0)"/>
      <use xlink:href="#DejaVuSans-f" transform="translate(210.90625 0)"/>
      <use xlink:href="#DejaVuSans-3" transform="translate(242.6875 0)"/>
      <use xlink:href="#DejaVuSans-56" transform="translate(274.46875 0)"/>
      <use xlink:href="#DejaVuSans-46" transform="translate(326.5625 0)"/>
      <use xlink:href="#DejaVuSans-4b" transform="translate(381.546875 0)"/>
      <use xlink:href="#DejaVuSans-48" transform="translate(444.921875 0)"/>
      <use xlink:href="#DejaVuSans-50" transform="translate(506.453125 0)"/>
      <use xlink:href="#DejaVuSans-48" transform="translate(603.859375 0)"/>
      <use xlink:href="#DejaVuSans-20" transform="translate(665.390625 0)"/>
      <use xlink:href="#DejaVuSans-58" transform="translate(749.1875 0)"/>
      <use xlink:href="#DejaVuSans-45" transform="translate(812.5625 0)"/>
      <use xlink:href="#DejaVuSans-42" transform="translate(876.046875 0)"/>
      <use xlink:href="#DejaVuSans-55" transform="translate(926.046875 0)"/>
      <use xlink:href="#DejaVuSans-4a" transform="translate(965.40625 0)"/>
      <use xlink:href="#DejaVuSans-f" transform="translate(1028.890625 0)"/>
      <use xlink:href="#DejaVuSans-3" transform="translate(1060.671875 0)"/>
      <use xlink:href="#DejaVuSans-25" transform="translate(1092.453125 0)"/>
      <use xlink:href="#DejaVuSans-20" transform="translate(1161.0625 0)"/>
      <use xlink:href="#DejaVuSans-19" transform="translate(1244.859375 0)"/>
      <use xlink:href="#DejaVuSans-17" transform="translate(1308.484375 0)"/>
     </g>
    </g>
   </g>
  </g>
  <g id="text_40">
   <!-- Sys1: serial Wide-EP step and throughput -->
   <g transform="translate(266.8725 16.318125) scale(0.12 -0.12)">
    <defs>
     <path id="DejaVuSans-1d" d="M 750 794 
L 1409 794 
L 1409 0 
L 750 0 
L 750 794 
z
M 750 3309 
L 1409 3309 
L 1409 2516 
L 750 2516 
L 750 3309 
z
" transform="scale(0.015625)"/>
     <path id="DejaVuSans-4f" d="M 603 4863 
L 1178 4863 
L 1178 0 
L 603 0 
L 603 4863 
z
" transform="scale(0.015625)"/>
     <path id="DejaVuSans-3a" d="M 213 4666 
L 850 4666 
L 1831 722 
L 2809 4666 
L 3519 4666 
L 4500 722 
L 5478 4666 
L 6119 4666 
L 4947 0 
L 4153 0 
L 3169 4050 
L 2175 0 
L 1381 0 
L 213 4666 
z
" transform="scale(0.015625)"/>
     <path id="DejaVuSans-28" d="M 628 4666 
L 3578 4666 
L 3578 4134 
L 1259 4134 
L 1259 2753 
L 3481 2753 
L 3481 2222 
L 1259 2222 
L 1259 531 
L 3634 531 
L 3634 0 
L 628 0 
L 628 4666 
z
" transform="scale(0.015625)"/>
    </defs>
    <use xlink:href="#DejaVuSans-36"/>
    <use xlink:href="#DejaVuSans-5c" transform="translate(63.484375 0)"/>
    <use xlink:href="#DejaVuSans-56" transform="translate(122.671875 0)"/>
    <use xlink:href="#DejaVuSans-14" transform="translate(174.765625 0)"/>
    <use xlink:href="#DejaVuSans-1d" transform="translate(238.390625 0)"/>
    <use xlink:href="#DejaVuSans-3" transform="translate(272.078125 0)"/>
    <use xlink:href="#DejaVuSans-56" transform="translate(303.859375 0)"/>
    <use xlink:href="#DejaVuSans-48" transform="translate(355.953125 0)"/>
    <use xlink:href="#DejaVuSans-55" transform="translate(417.484375 0)"/>
    <use xlink:href="#DejaVuSans-4c" transform="translate(458.59375 0)"/>
    <use xlink:href="#DejaVuSans-44" transform="translate(486.375 0)"/>
    <use xlink:href="#DejaVuSans-4f" transform="translate(547.65625 0)"/>
    <use xlink:href="#DejaVuSans-3" transform="translate(575.4375 0)"/>
    <use xlink:href="#DejaVuSans-3a" transform="translate(607.21875 0)"/>
    <use xlink:href="#DejaVuSans-4c" transform="translate(703.890625 0)"/>
    <use xlink:href="#DejaVuSans-47" transform="translate(731.671875 0)"/>
    <use xlink:href="#DejaVuSans-48" transform="translate(795.15625 0)"/>
    <use xlink:href="#DejaVuSans-10" transform="translate(856.6875 0)"/>
    <use xlink:href="#DejaVuSans-28" transform="translate(892.765625 0)"/>
    <use xlink:href="#DejaVuSans-33" transform="translate(955.953125 0)"/>
    <use xlink:href="#DejaVuSans-3" transform="translate(1016.25 0)"/>
    <use xlink:href="#DejaVuSans-56" transform="translate(1048.03125 0)"/>
    <use xlink:href="#DejaVuSans-57" transform="translate(1100.125 0)"/>
    <use xlink:href="#DejaVuSans-48" transform="translate(1139.328125 0)"/>
    <use xlink:href="#DejaVuSans-53" transform="translate(1200.859375 0)"/>
    <use xlink:href="#DejaVuSans-3" transform="translate(1264.34375 0)"/>
    <use xlink:href="#DejaVuSans-44" transform="translate(1296.125 0)"/>
    <use xlink:href="#DejaVuSans-51" transform="translate(1357.40625 0)"/>
    <use xlink:href="#DejaVuSans-47" transform="translate(1420.78125 0)"/>
    <use xlink:href="#DejaVuSans-3" transform="translate(1484.265625 0)"/>
    <use xlink:href="#DejaVuSans-57" transform="translate(1516.046875 0)"/>
    <use xlink:href="#DejaVuSans-4b" transform="translate(1555.25 0)"/>
    <use xlink:href="#DejaVuSans-55" transform="translate(1618.625 0)"/>
    <use xlink:href="#DejaVuSans-52" transform="translate(1657.53125 0)"/>
    <use xlink:href="#DejaVuSans-58" transform="translate(1718.71875 0)"/>
    <use xlink:href="#DejaVuSans-4a" transform="translate(1782.09375 0)"/>
    <use xlink:href="#DejaVuSans-4b" transform="translate(1845.578125 0)"/>
    <use xlink:href="#DejaVuSans-53" transform="translate(1908.953125 0)"/>
    <use xlink:href="#DejaVuSans-58" transform="translate(1972.4375 0)"/>
    <use xlink:href="#DejaVuSans-57" transform="translate(2035.8125 0)"/>
   </g>
  </g>
 </g>
 <defs>
  <clipPath id="p7f825450d4">
   <rect x="66.375781" y="38.638818" width="322.837656" height="222.790838"/>
  </clipPath>
  <clipPath id="p9e4c9efb8d">
   <rect x="453.735781" y="38.638818" width="322.837656" height="222.790838"/>
  </clipPath>
 </defs>
</svg>
